<?xml version="1.0" standalone="no"?>
<!DOCTYPE svg PUBLIC "-//W3C//DTD SVG 1.1//EN" "http://www.w3.org/Graphics/SVG/1.1/DTD/svg11.dtd" >
<svg xmlns="http://www.w3.org/2000/svg" xmlns:xlink="http://www.w3.org/1999/xlink" version="1.1">
<metadata>
Created by FontForge 20170731 at Fri Sep 12 16:04:05 2008
 By Aleksey,,,
Copyright (C) 2005, 2008 Hoefler &#38; Frere-Jones. http://www.typography.com
</metadata>
<defs>
<font id="GothamNarrow-ThinItalic" horiz-adv-x="504" >
  <font-face 
    font-family="Gotham Narrow Thin"
    font-weight="250"
    font-style="italic"
    font-stretch="condensed"
    units-per-em="1000"
    panose-1="0 0 0 0 0 0 0 0 0 0"
    ascent="800"
    descent="-200"
    x-height="508"
    cap-height="700"
    bbox="-116 -200 1016 949"
    underline-thickness="50"
    underline-position="-300"
    slope="-10"
    unicode-range="U+0020-FB04"
  />
<missing-glyph 
d="M2 -200v1000h500v-1000h-500zM52 -76l172 376l-172 376v-752zM73 -150h358l-179 390zM252 360l179 390h-358zM452 -76v752l-172 -376z" />
    <glyph glyph-name="f_f" unicode="ff" horiz-adv-x="562" 
d="M39 0l119 489h-70l5 19h69l20 77q17 72 49 105q33 32 85 32q40 0 71 -17l-5 -20q-29 17 -67 17q-84 0 -110 -109l-21 -85h150l-5 -19h-150l-119 -489h-21zM319 0l119 489h-70l5 19h69l20 77q17 72 49 105q33 32 85 32q40 0 71 -17l-5 -20q-29 17 -67 17q-84 0 -110 -109
l-21 -85h150l-5 -19h-150l-119 -489h-21z" />
    <glyph glyph-name="fi" unicode="fi" horiz-adv-x="474" 
d="M39 0l119 489h-70l5 19h69l20 77q17 72 49 105q33 32 85 32q40 0 71 -17l-5 -20q-29 17 -67 17q-84 0 -110 -109l-21 -85h150l-5 -19h-150l-119 -489h-21zM304 0l124 508h21l-124 -508h-21zM457 645l14 57h29l-14 -57h-29z" />
    <glyph glyph-name="fl" unicode="fl" horiz-adv-x="474" 
d="M39 0l119 489h-70l5 19h69l20 77q17 72 49 105q33 32 85 32q40 0 71 -17l-5 -20q-29 17 -67 17q-84 0 -110 -109l-21 -85h150l-5 -19h-150l-119 -489h-21zM304 0l177 722h21l-177 -722h-21z" />
    <glyph glyph-name="f_f_i" unicode="ffi" horiz-adv-x="755" 
d="M39 0l119 489h-70l5 19h69l20 77q17 72 49 105q33 32 85 32q40 0 71 -17l-5 -20q-29 17 -67 17q-84 0 -110 -109l-21 -85h150l-5 -19h-150l-119 -489h-21zM319 0l119 489h-70l5 19h69l20 77q17 72 49 105q33 32 85 32q40 0 71 -17l-5 -20q-29 17 -67 17q-84 0 -110 -109
l-21 -85h150l-5 -19h-150l-119 -489h-21zM585 0l124 508h21l-124 -508h-21zM738 645l14 57h29l-14 -57h-29z" />
    <glyph glyph-name="f_f_l" unicode="ffl" horiz-adv-x="754" 
d="M39 0l119 489h-70l5 19h69l20 77q17 72 49 105q33 32 85 32q40 0 71 -17l-5 -20q-29 17 -67 17q-84 0 -110 -109l-21 -85h150l-5 -19h-150l-119 -489h-21zM319 0l119 489h-70l5 19h69l20 77q17 72 49 105q33 32 85 32q40 0 71 -17l-5 -20q-29 17 -67 17q-84 0 -110 -109
l-21 -85h150l-5 -19h-150l-119 -489h-21zM585 0l177 722h21l-177 -722h-21z" />
    <glyph glyph-name=".notdef" 
d="M2 -200v1000h500v-1000h-500zM52 -76l172 376l-172 376v-752zM73 -150h358l-179 390zM252 360l179 390h-358zM452 -76v752l-172 -376z" />
    <glyph glyph-name=".null" horiz-adv-x="0" 
 />
    <glyph glyph-name="nonmarkingreturn" horiz-adv-x="333" 
 />
    <glyph glyph-name="space" unicode=" " horiz-adv-x="230" 
 />
    <glyph glyph-name="exclam" unicode="!" horiz-adv-x="178" 
d="M67 183l96 421l24 96h22l-24 -96l-108 -421h-10zM11 0l12 52h33l-12 -52h-33z" />
    <glyph glyph-name="quotedbl" unicode="&#x22;" horiz-adv-x="276" 
d="M91 450l85 250h25l-1 -4l-97 -246h-12zM212 450l85 250h25l-1 -4l-97 -246h-12z" />
    <glyph glyph-name="numbersign" unicode="#" horiz-adv-x="569" 
d="M82 0l60 201h-99l4 19h101l80 265h-109l4 19h111l58 196h20l-59 -196h202l59 196h20l-59 -196h99l-4 -19h-101l-80 -265h109l-4 -19h-111l-60 -201h-19l60 201h-202l-60 -201h-20zM168 220h202l80 265h-203z" />
    <glyph glyph-name="dollar" unicode="$" horiz-adv-x="529" 
d="M377 761h19l-16 -65q85 -16 146 -81l-15 -14q-57 62 -136 77l-76 -313q79 -43 115.5 -81.5t36.5 -100.5q0 -71 -54.5 -128t-155.5 -57q-10 0 -32 2l-24 -98h-19l26 100q-110 18 -179 106l16 14q62 -84 167 -102l81 335q-75 39 -113 76.5t-38 96.5q0 69 54.5 121t150.5 52
q11 0 31 -2zM429 185q0 53 -32 88t-103 71l-80 -326q9 -1 28 -1q90 0 138.5 51.5t48.5 116.5zM148 528q0 -53 32.5 -85.5t101.5 -66.5l75 305q-18 2 -27 2q-85 0 -133.5 -46.5t-48.5 -108.5z" />
    <glyph glyph-name="percent" unicode="%" horiz-adv-x="717" 
d="M60 0l313 355l305 345h24l-313 -355l-304 -345h-25zM212 354q-52 0 -84 37.5t-32 98.5q0 48 18.5 95t49.5 78q44 44 99 44q52 0 83.5 -37t31.5 -98q0 -48 -18 -95t-49 -78q-45 -45 -99 -45zM212 374q48 0 83 37q28 28 45 71.5t17 88.5q0 52 -25.5 84.5t-69.5 32.5
q-46 0 -83 -37q-28 -28 -45 -71.5t-17 -88.5q0 -52 26 -84.5t69 -32.5zM499 -7q-52 0 -83.5 37t-31.5 98q0 48 18 95t49 78q47 45 100 45q52 0 83.5 -37.5t31.5 -98.5q0 -48 -18.5 -95t-49.5 -78q-44 -44 -99 -44zM500 12q48 0 83 37q28 28 45 71.5t17 88.5q0 52 -25.5 84.5
t-69.5 32.5q-46 0 -83 -37q-28 -28 -45 -71.5t-17 -88.5q0 -52 26 -84.5t69 -32.5z" />
    <glyph glyph-name="ampersand" unicode="&#x26;" horiz-adv-x="587" 
d="M536 325l19 -9q-64 -122 -116 -188l76 -126l-17 -11l-74 121q-111 -121 -227 -121q-72 0 -120.5 45.5t-48.5 118.5q0 49 18.5 89t54 68.5t71.5 47t85 36.5q-51 89 -51 152q0 70 46 116.5t115 46.5q57 0 94 -36t37 -88q0 -69 -54.5 -116t-157.5 -85l142 -240
q48 62 108 179zM198 11q112 0 215 118l-146 251q-102 -38 -159.5 -89.5t-57.5 -132.5q0 -67 42.5 -107t105.5 -40zM228 549q0 -61 49 -147q96 34 147.5 77t51.5 106q0 46 -30.5 76t-79.5 30q-60 0 -99 -40.5t-39 -101.5z" />
    <glyph glyph-name="quotesingle" unicode="'" horiz-adv-x="152" 
d="M91 450l85 250h25l-1 -4l-97 -246h-12z" />
    <glyph glyph-name="parenleft" unicode="(" horiz-adv-x="337" 
d="M222 -126q-151 133 -151 335q0 108 41.5 206t117.5 175q81 79 192 123l8 -19q-108 -40 -185 -117q-72 -72 -112 -167.5t-40 -200.5q0 -191 143 -321z" />
    <glyph glyph-name="parenright" unicode=")" horiz-adv-x="337" 
d="M130 709q151 -133 151 -335q0 -108 -41.5 -206t-117.5 -175q-81 -79 -192 -123l-8 19q108 40 185 117q72 72 112 167.5t40 200.5q0 191 -143 321z" />
    <glyph glyph-name="asterisk" unicode="*" horiz-adv-x="379" 
d="M239 416l-21 5l38 130l-121 -42l-7 21l125 30l-97 87l17 16l87 -95l27 132l21 -5l-38 -129l121 42l7 -21l-125 -31l96 -86l-17 -16l-86 94z" />
    <glyph glyph-name="plus" unicode="+" horiz-adv-x="515" 
d="M218 144l50 199h-188l4 18h189l50 199h20l-50 -199h189l-5 -18h-189l-50 -199h-20z" />
    <glyph glyph-name="comma" unicode="," horiz-adv-x="142" 
d="M-28 -73l-4 13q28 8 40 60h-16l13 52h33l-11 -51q-16 -62 -55 -74z" />
    <glyph glyph-name="hyphen" unicode="-" horiz-adv-x="344" 
d="M68 287l5 20h222l-5 -20h-222z" />
    <glyph glyph-name="period" unicode="." horiz-adv-x="143" 
d="M-7 0l13 52h33l-13 -52h-33z" />
    <glyph glyph-name="slash" unicode="/" horiz-adv-x="414" 
d="M-88 -118l610 906h24l-611 -906h-23z" />
    <glyph glyph-name="zero" unicode="0" horiz-adv-x="599" 
d="M385 711q91 0 139.5 -64t48.5 -174q0 -106 -38.5 -223t-105.5 -184q-75 -77 -169 -77q-91 0 -139.5 64t-48.5 174q0 106 39 222.5t106 184.5q75 77 168 77zM262 9q83 0 150 69q64 64 101.5 177.5t37.5 217.5q0 100 -42.5 159t-124.5 59q-84 0 -151 -69
q-64 -64 -101.5 -177.5t-37.5 -217.5q0 -100 42.5 -159t125.5 -59z" />
    <glyph glyph-name="one" unicode="1" horiz-adv-x="272" 
d="M83 0l166 678l-126 -54l-1 21l137 59h17l-171 -704h-22z" />
    <glyph glyph-name="two" unicode="2" horiz-adv-x="478" 
d="M-21 0l3 14l354 335q70 68 97 112.5t27 94.5q0 57 -41 94.5t-110 37.5q-95 0 -175 -92l-15 14q82 98 190 98q80 0 126.5 -43.5t46.5 -107.5q0 -57 -30 -106.5t-104 -119.5l-331 -311h368l-5 -20h-401z" />
    <glyph glyph-name="three" unicode="3" horiz-adv-x="472" 
d="M180 -9q-68 0 -118.5 28.5t-77.5 75.5l17 12q59 -95 180 -95q92 0 153 56t61 140q0 74 -55.5 111.5t-140.5 39.5h-13l-2 14l299 307h-337l5 20h366l-4 -16l-299 -308q97 -7 150 -51t53 -117q0 -89 -61 -148q-67 -69 -176 -69z" />
    <glyph glyph-name="four" unicode="4" horiz-adv-x="526" 
d="M319 0l44 178h-346l-1 14l476 513h19l-123 -507h96l-5 -20h-96l-44 -178h-20zM47 198h320l114 469z" />
    <glyph glyph-name="five" unicode="5" horiz-adv-x="493" 
d="M200 -10q-65 0 -115.5 29t-77.5 73l18 12q58 -94 176 -94q93 0 155 66t62 159q0 78 -45.5 117.5t-121.5 39.5q-65 0 -138 -34l-12 10l100 332h308l-6 -20h-288l-88 -295q64 27 125 27q84 0 136.5 -45.5t51.5 -132.5q0 -104 -70 -174t-170 -70z" />
    <glyph glyph-name="six" unicode="6" horiz-adv-x="532" 
d="M252 -11q-80 0 -130 52q-55 53 -55 157q0 116 40.5 240t112.5 197q76 76 173 76q92 0 160 -76l-16 -15q-60 70 -144 70q-88 0 -158 -69q-105 -105 -140 -326q26 58 81.5 96t125.5 38q85 0 134.5 -49.5t49.5 -127.5q0 -54 -20 -107.5t-58 -91.5q-64 -64 -156 -64zM254 9
q81 0 139 58q34 33 52.5 83t18.5 100q0 73 -43.5 116t-120.5 43q-86 0 -148 -62q-63 -63 -63 -159q0 -83 49 -134q47 -45 116 -45z" />
    <glyph glyph-name="seven" unicode="7" horiz-adv-x="452" 
d="M41 0l436 680h-355l5 20h380l-3 -16l-439 -684h-24z" />
    <glyph glyph-name="eight" unicode="8" horiz-adv-x="529" 
d="M244 -9q-94 0 -151.5 47.5t-57.5 126.5q0 75 55 132.5t145 69.5q-102 45 -102 149q0 77 58.5 135t149.5 58q78 0 130 -44t52 -115q0 -73 -47.5 -126.5t-127.5 -66.5q58 -21 91 -65t33 -100q0 -83 -62.5 -142t-165.5 -59zM245 11q93 0 149.5 52.5t56.5 129.5
q0 67 -50.5 114t-130.5 47q-92 0 -153 -55.5t-61 -132.5q0 -69 51.5 -112t137.5 -43zM308 369q81 0 137.5 51.5t56.5 128.5q0 62 -46 101.5t-116 39.5q-81 0 -133.5 -52t-52.5 -123q0 -59 43 -102.5t111 -43.5z" />
    <glyph glyph-name="nine" unicode="9" horiz-adv-x="530" 
d="M183 -11q-96 0 -165 83l16 15q63 -77 150 -77q88 0 157 69q106 105 140 321q-26 -59 -81.5 -97t-125.5 -38q-85 0 -134 50t-49 130q0 55 19.5 109t57.5 92q65 65 157 65q80 0 130 -52q55 -53 55 -157q0 -116 -40.5 -240t-112.5 -197q-76 -76 -174 -76zM275 285
q89 0 149 62q64 68 64 162q0 86 -49 137q-47 45 -116 45q-81 0 -138 -57q-35 -35 -53.5 -85.5t-18.5 -101.5q0 -75 43 -118.5t119 -43.5z" />
    <glyph glyph-name="colon" unicode=":" horiz-adv-x="148" 
d="M-4 0l12 52h33l-12 -52h-33zM105 447l12 51h34l-13 -51h-33z" />
    <glyph glyph-name="semicolon" unicode=";" horiz-adv-x="146" 
d="M-4 -44q-3 -16 -19 -20q-1 -1 -2 -1q11 7 17 40q5 2 6 5t0.5 7.5t0.5 12.5l2 27l24 25l8 -25q-18 -66 -37 -71zM103 447l12 51h33l-12 -51h-33zM-29 -67l4 2z" />
    <glyph glyph-name="less" unicode="&#x3c;" horiz-adv-x="519" 
d="M415 139l-339 208l3 10l442 208l-5 -24l-408 -191l312 -190z" />
    <glyph glyph-name="equal" unicode="=" horiz-adv-x="515" 
d="M71 240l5 21h363l-4 -21h-364zM122 444l5 20h364l-5 -20h-364z" />
    <glyph glyph-name="greater" unicode="&#x3e;" horiz-adv-x="519" 
d="M43 139l6 24l408 191l-313 190l6 21l339 -208l-3 -10z" />
    <glyph glyph-name="question" unicode="?" horiz-adv-x="435" 
d="M167 183l33 162l3 4q103 15 168.5 65t65.5 132q0 64 -42.5 102.5t-113.5 38.5q-89 0 -171 -73l-13 16q87 78 185 78q81 0 129 -45.5t48 -115.5q0 -87 -65.5 -141t-172.5 -74l-44 -149h-10zM112 0l12 52h34l-13 -52h-33z" />
    <glyph glyph-name="at" unicode="@" horiz-adv-x="847" 
d="M387 -151q-151 0 -239.5 93t-88.5 246q0 105 36.5 202.5t97 167t141.5 111.5t167 42q141 0 224.5 -92t83.5 -223q0 -136 -58 -227t-128 -91q-53 0 -72 35t-10 83q-22 -48 -66.5 -83.5t-100.5 -35.5q-60 0 -93.5 40t-33.5 105q0 96 62 181.5t147 85.5q61 0 93 -36t35 -91
l31 106l20 -4l-64 -214q-14 -45 -14 -80q0 -73 67 -73q61 0 113.5 86.5t52.5 210.5t-78.5 211.5t-211.5 87.5q-111 0 -208.5 -69.5t-155 -185.5t-57.5 -248q0 -144 82.5 -233.5t226.5 -89.5q111 0 205 53l9 -16q-97 -55 -215 -55zM377 98q51 0 97 40.5t70.5 95t24.5 103.5
q0 59 -28.5 95.5t-85.5 36.5q-74 0 -130.5 -79t-56.5 -166q0 -59 28 -92.5t81 -33.5z" />
    <glyph glyph-name="A" unicode="A" horiz-adv-x="646" 
d="M-23 0l450 705h20l103 -705h-21l-30 210h-364l-133 -210h-25zM148 230h348l-65 443z" />
    <glyph glyph-name="B" unicode="B" horiz-adv-x="610" 
d="M29 0l171 700h186q92 0 146.5 -43t54.5 -112q0 -86 -57 -134t-135 -57q66 -14 102 -52.5t36 -95.5q0 -92 -71.5 -149t-203.5 -57h-229zM55 20h204q123 0 187.5 52t64.5 135q0 62 -51.5 99.5t-138.5 37.5h-186zM140 364h183q114 0 178 48.5t64 130.5q0 64 -49 100.5
t-133 36.5h-167z" />
    <glyph glyph-name="C" unicode="C" horiz-adv-x="596" 
d="M308 -11q-99 0 -164.5 70.5t-65.5 192.5q0 99 36.5 197t102.5 164q98 98 220 98q136 0 198 -116l-19 -10q-57 106 -179 106q-115 0 -203 -90q-63 -63 -98.5 -157t-35.5 -193q0 -112 59.5 -177t150.5 -65q103 0 194 84l15 -16q-96 -88 -211 -88z" />
    <glyph glyph-name="D" unicode="D" horiz-adv-x="643" 
d="M29 0l171 700h111q151 0 230 -79q70 -70 70 -195q0 -84 -31 -170t-88 -143q-113 -113 -298 -113h-165zM525 606q-71 74 -211 74h-98l-161 -660h141q175 0 280 107q54 54 83.5 136t29.5 163q0 116 -64 180z" />
    <glyph glyph-name="E" unicode="E" horiz-adv-x="552" 
d="M29 0l171 700h403l-5 -20h-381l-78 -318h347l-5 -20h-346l-80 -322h386l-5 -20h-407z" />
    <glyph glyph-name="F" unicode="F" horiz-adv-x="522" 
d="M29 0l171 700h397l-6 -20h-375l-79 -325h340l-4 -20h-340l-82 -335h-22z" />
    <glyph glyph-name="G" unicode="G" horiz-adv-x="650" 
d="M329 -11q-113 0 -180.5 75.5t-67.5 201.5q0 95 35.5 187t98.5 154q102 104 238 104q125 0 201 -98l-18 -13q-67 91 -183 91q-124 0 -222 -96q-59 -59 -93.5 -148t-34.5 -180q0 -116 62 -187t166 -71q93 0 171 52l69 267h-204l5 22h226l-77 -302q-90 -59 -192 -59z" />
    <glyph glyph-name="H" unicode="H" horiz-adv-x="643" 
d="M29 0l171 700h22l-83 -337h418l83 337h22l-171 -700h-22l83 343h-418l-83 -343h-22z" />
    <glyph glyph-name="I" unicode="I" horiz-adv-x="215" 
d="M35 0l171 700h22l-171 -700h-22z" />
    <glyph glyph-name="J" unicode="J" horiz-adv-x="427" 
d="M139 -9q-56 0 -95.5 32t-56.5 84l20 7q17 -48 51.5 -75.5t81.5 -27.5q58 0 102 42q40 42 63 134l124 513h22l-125 -516q-25 -100 -69 -144q-49 -49 -118 -49z" />
    <glyph glyph-name="K" unicode="K" horiz-adv-x="588" 
d="M29 0l171 700h22l-114 -460l505 460h31l-333 -301l175 -399h-23l-168 384l-194 -175l-50 -209h-22z" />
    <glyph glyph-name="L" unicode="L" horiz-adv-x="487" 
d="M29 0l171 700h22l-167 -680h350l-4 -20h-372z" />
    <glyph glyph-name="M" unicode="M" horiz-adv-x="733" 
d="M29 0l171 700h20l148 -434l359 434h25l-172 -700h-21l161 658l-360 -434h-2l-147 434l-161 -658h-21z" />
    <glyph glyph-name="N" unicode="N" horiz-adv-x="664" 
d="M29 0l171 700h20l279 -662l163 662h21l-172 -700h-19l-280 665l-162 -665h-21z" />
    <glyph glyph-name="O" unicode="O" horiz-adv-x="698" 
d="M425 711q108 0 174.5 -76.5t66.5 -201.5q0 -96 -36 -192t-100 -159q-93 -93 -210 -93q-107 0 -173.5 76.5t-66.5 201.5q0 96 36 192t99 159q93 93 210 93zM321 9q108 0 194 86q60 60 94.5 153t34.5 185q0 116 -61 187t-159 71q-109 0 -193 -86q-60 -60 -94.5 -153
t-34.5 -185q0 -116 60.5 -187t158.5 -71z" />
    <glyph glyph-name="P" unicode="P" horiz-adv-x="566" 
d="M29 0l171 700h160q120 0 175 -57q45 -45 45 -123q0 -97 -65 -164q-83 -83 -240 -83h-158l-67 -273h-21zM518 629q-50 51 -159 51h-143l-94 -387h154q145 0 221 76q61 61 61 151q0 70 -40 109z" />
    <glyph glyph-name="Q" unicode="Q" horiz-adv-x="701" 
d="M425 711q108 0 174.5 -76.5t66.5 -201.5q0 -95 -36.5 -192t-98.5 -158l-9 -9l60 -73l-15 -13l-60 73q-84 -72 -187 -72q-107 0 -173.5 76.5t-66.5 201.5q0 96 36 192.5t99 158.5q93 93 210 93zM321 9q94 0 173 67l-107 131l16 13l106 -131l6 6q59 60 94 153.5t35 184.5
q0 116 -61 187t-159 71q-109 0 -193 -86q-60 -59 -94.5 -153t-34.5 -185q0 -116 60.5 -187t158.5 -71z" />
    <glyph glyph-name="R" unicode="R" horiz-adv-x="611" 
d="M467 0l-134 301h-32h-177l-73 -301h-22l171 700h183q116 0 171 -55q45 -47 45 -118q0 -91 -58 -149q-65 -65 -187 -75l137 -303h-24zM129 321h173q154 0 222 68q53 55 53 137q0 65 -38 103q-51 51 -159 51h-163z" />
    <glyph glyph-name="S" unicode="S" horiz-adv-x="536" 
d="M246 -9q-143 0 -234 124l18 13q86 -117 218 -117q83 0 135 49.5t52 112.5q0 32 -10.5 57.5t-35.5 48t-44.5 36.5t-59.5 38q-39 24 -57 37t-44 36.5t-37 49t-11 56.5q0 68 50 118q59 59 155 59q119 0 203 -97l-16 -14q-78 91 -189 91q-80 0 -130.5 -46.5t-50.5 -108.5
q0 -34 20 -64t44.5 -48.5t65.5 -45.5l4.5 -3t4 -2.5t4.5 -2.5q79 -48 117.5 -88.5t38.5 -104.5q0 -71 -54 -124q-60 -60 -157 -60z" />
    <glyph glyph-name="T" unicode="T" horiz-adv-x="485" 
d="M166 0l166 680h-209l5 20h441l-5 -20h-210l-166 -680h-22z" />
    <glyph glyph-name="U" unicode="U" horiz-adv-x="640" 
d="M284 -10q-92 0 -149.5 49t-57.5 144q0 47 16 114l98 403h22l-99 -405q-15 -63 -15 -110q0 -86 51.5 -130.5t135.5 -44.5q96 0 162 66q60 62 92 189l105 435h22l-107 -441q-33 -132 -97 -197q-73 -72 -179 -72z" />
    <glyph glyph-name="V" unicode="V" horiz-adv-x="608" 
d="M228 -5l-85 705h22l80 -671l409 671h25l-432 -705h-19z" />
    <glyph glyph-name="W" unicode="W" horiz-adv-x="904" 
d="M181 -5l-34 705h22l30 -669l349 671h18l31 -671l350 669h23l-371 -705h-20l-31 665l-347 -665h-20z" />
    <glyph glyph-name="X" unicode="X" horiz-adv-x="567" 
d="M-23 0l318 358l-151 342h23l143 -327l289 327h26l-306 -346l156 -354h-23l-148 339l-301 -339h-26z" />
    <glyph glyph-name="Y" unicode="Y" horiz-adv-x="559" 
d="M203 0l72 297l-146 403h22l139 -384l328 384h27l-348 -406l-72 -294h-22z" />
    <glyph glyph-name="Z" unicode="Z" horiz-adv-x="555" 
d="M-9 0l3 14l576 666h-402l6 20h431l-3 -15l-577 -665h415l-5 -20h-444z" />
    <glyph glyph-name="bracketleft" unicode="[" horiz-adv-x="356" 
d="M6 -130l203 830h216l-5 -17h-194l-194 -796h194l-4 -17h-216z" />
    <glyph glyph-name="backslash" unicode="\" horiz-adv-x="400" 
d="M309 -118l-166 906h20l166 -906h-20z" />
    <glyph glyph-name="bracketright" unicode="]" horiz-adv-x="356" 
d="M361 700l-203 -830h-216l5 17h194l194 796h-194l4 17h216z" />
    <glyph glyph-name="asciicircum" unicode="^" horiz-adv-x="439" 
d="M146 507l175 190h13l80 -190h-15l-76 165l-159 -165h-18z" />
    <glyph glyph-name="underscore" unicode="_" horiz-adv-x="517" 
d="M-100 -149l5 19h518l-4 -19h-519z" />
    <glyph glyph-name="grave" unicode="`" 
d="M374 588l-72 103l24 12l59 -115h-11z" />
    <glyph glyph-name="a" unicode="a" horiz-adv-x="486" 
d="M159 -10q-57 0 -98.5 35.5t-41.5 97.5q0 81 51 131q51 53 150 53q88 0 176 -31l7 29q9 43 9 71q0 57 -40 88t-107 31q-58 0 -122 -24l-6 20q66 24 130 24q75 0 120.5 -36t45.5 -103q0 -32 -10 -72l-74 -304h-21l27 108q-67 -118 -196 -118zM162 9q78 0 136 54t78 133
l15 60q-84 31 -173 31q-86 0 -132 -46q-45 -43 -45 -116q0 -55 35.5 -85.5t85.5 -30.5z" />
    <glyph glyph-name="b" unicode="b" horiz-adv-x="553" 
d="M255 -10q-80 0 -125 51t-52 116l-39 -157h-21l177 722h21l-84 -340q25 49 81 92.5t125 43.5q76 0 123 -56t47 -141q0 -73 -27 -145t-75 -120q-66 -66 -151 -66zM254 10q78 0 136 60q44 44 70 112.5t26 136.5q0 77 -41.5 128t-107.5 51q-81 0 -146 -65q-45 -45 -72 -110
t-27 -127q0 -78 44 -132t118 -54z" />
    <glyph glyph-name="c" unicode="c" horiz-adv-x="457" 
d="M223 -10q-76 0 -129.5 55t-53.5 149q0 70 26.5 137t72.5 114q73 73 164 73q102 0 157 -91l-17 -12q-50 82 -142 82q-82 0 -145 -65q-43 -43 -68.5 -107.5t-25.5 -130.5q0 -86 47.5 -135t115.5 -49q72 0 139 58l13 -15q-72 -63 -154 -63z" />
    <glyph glyph-name="d" unicode="d" horiz-adv-x="553" 
d="M388 0l30 126q-24 -48 -80.5 -92t-125.5 -44q-76 0 -122.5 55.5t-46.5 141.5q0 73 27 145t75 119q67 67 151 67q80 0 125 -51t51 -116l92 371h21l-176 -722h-21zM214 10q81 0 145 64q45 45 72 110t27 128q0 78 -43.5 132t-117.5 54q-76 0 -136 -60q-45 -44 -70.5 -112.5
t-25.5 -137.5q0 -77 41.5 -127.5t107.5 -50.5z" />
    <glyph glyph-name="e" unicode="e" horiz-adv-x="500" 
d="M445 247h-378q-4 -24 -4 -55q0 -86 45.5 -134t124.5 -48q80 0 149 55l12 -17q-75 -58 -161 -58q-88 0 -139.5 53t-51.5 147q0 72 27.5 141.5t74.5 116.5q70 70 155 70q80 0 120 -51.5t40 -130.5q-2 -45 -14 -89zM160 436q-65 -65 -89 -169h357q9 41 9 69
q0 71 -34.5 116.5t-103.5 45.5q-75 0 -139 -62z" />
    <glyph glyph-name="f" unicode="f" horiz-adv-x="282" 
d="M39 0l119 489h-70l5 19h69l20 77q17 72 49 105q33 32 85 32q40 0 71 -17l-5 -20q-29 17 -67 17q-84 0 -110 -109l-21 -85h150l-5 -19h-150l-119 -489h-21z" />
    <glyph glyph-name="g" unicode="g" horiz-adv-x="550" 
d="M190 -150q-52 0 -105 19t-90 51l13 16q35 -31 84 -48.5t98 -17.5q92 0 145 53q41 39 65 136l24 98q-32 -52 -85 -88.5t-119 -36.5q-73 0 -122 51.5t-49 130.5q0 67 25 130t69 107q69 67 156 67q76 0 121 -49.5t52 -108.5l37 148h21l-110 -449q-26 -105 -70 -148
q-61 -61 -160 -61zM223 52q85 0 150 67q39 39 61.5 95t22.5 107q0 70 -43.5 123.5t-115.5 53.5q-77 0 -139 -60q-41 -41 -64.5 -100.5t-23.5 -121.5q0 -71 42.5 -117.5t109.5 -46.5z" />
    <glyph glyph-name="h" unicode="h" horiz-adv-x="522" 
d="M18 0l177 722h21l-82 -330q27 54 76 90t114 36q67 0 105.5 -37.5t38.5 -105.5q0 -36 -15 -99l-67 -276h-21l67 275q14 56 14 99q0 59 -32 91.5t-93 32.5q-70 0 -128.5 -54t-80.5 -145l-73 -299h-21z" />
    <glyph glyph-name="i" unicode="i" horiz-adv-x="194" 
d="M24 0l124 508h21l-124 -508h-21zM177 645l14 57h29l-14 -57h-29z" />
    <glyph glyph-name="j" unicode="j" horiz-adv-x="194" 
d="M-75 -155q-21 0 -41 8l5 20q18 -8 36 -8q65 0 85 81l138 562h21l-139 -567q-22 -96 -105 -96zM177 645l14 57h29l-14 -57h-29z" />
    <glyph glyph-name="k" unicode="k" horiz-adv-x="457" 
d="M18 0l177 722h21l-135 -550l365 336h28l-241 -220l126 -288h-21l-120 273l-144 -131l-35 -142h-21z" />
    <glyph glyph-name="l" unicode="l" horiz-adv-x="193" 
d="M24 0l177 722h21l-177 -722h-21z" />
    <glyph glyph-name="m" unicode="m" horiz-adv-x="807" 
d="M18 0l124 508h21l-28 -115q63 125 171 125q59 0 95 -36t36 -102q30 59 77.5 98.5t106.5 39.5t95 -36.5t36 -100.5q0 -37 -16 -105l-67 -276h-21l67 275q16 70 16 105q0 56 -29.5 87t-83.5 31q-63 0 -117 -57.5t-76 -144.5l-71 -296h-21l67 276q16 62 16 104
q0 56 -29.5 87t-83.5 31q-63 0 -117 -58t-75 -144l-72 -296h-21z" />
    <glyph glyph-name="n" unicode="n" horiz-adv-x="522" 
d="M18 0l124 508h21l-29 -116q27 54 76 90t114 36q67 0 105.5 -37.5t38.5 -105.5q0 -36 -15 -99l-67 -276h-21l67 275q14 56 14 99q0 59 -32 91.5t-93 32.5q-70 0 -128.5 -54t-80.5 -145l-73 -299h-21z" />
    <glyph glyph-name="o" unicode="o" horiz-adv-x="531" 
d="M303 518q83 0 135 -57t52 -147q0 -71 -26 -138.5t-74 -115.5q-70 -70 -162 -70q-83 0 -135 56.5t-52 147.5q0 70 26 138t74 116q70 70 162 70zM229 10q82 0 146 64q43 43 68 107.5t25 130.5q0 82 -45.5 134t-120.5 52q-83 0 -146 -65q-43 -43 -68 -107t-25 -131
q0 -81 45.5 -133t120.5 -52z" />
    <glyph glyph-name="p" unicode="p" horiz-adv-x="554" 
d="M255 -10q-80 0 -125 51t-52 116l-75 -307h-21l160 658h21l-31 -126q25 49 81 92.5t125 43.5q76 0 123 -56t47 -141q0 -73 -27 -145t-75 -120q-66 -66 -151 -66zM254 10q78 0 136 60q44 44 70 112.5t26 136.5q0 77 -41.5 128t-107.5 51q-81 0 -146 -65q-45 -45 -72 -110
t-27 -127q0 -78 44 -132t118 -54z" />
    <glyph glyph-name="q" unicode="q" horiz-adv-x="553" 
d="M212 -10q-76 0 -122.5 55.5t-46.5 141.5q0 73 27 145t75 119q67 67 151 67q80 0 125 -51t51 -116l39 157h21l-160 -658h-21l67 276q-24 -48 -80.5 -92t-125.5 -44zM214 10q81 0 145 64q45 45 72 110t27 128q0 78 -43.5 132t-117.5 54q-76 0 -136 -60
q-45 -44 -70.5 -112.5t-25.5 -137.5q0 -77 41.5 -127.5t107.5 -50.5z" />
    <glyph glyph-name="r" unicode="r" horiz-adv-x="295" 
d="M18 0l124 508h21l-33 -133q38 66 95.5 104.5t114.5 37.5l-4 -21h-2q-64 0 -134 -60.5t-91 -147.5l-70 -288h-21z" />
    <glyph glyph-name="s" unicode="s" horiz-adv-x="415" 
d="M177 -8q-49 0 -95.5 24t-79.5 64l17 14q73 -82 160 -82q58 0 94.5 34t36.5 77q0 39 -24.5 66t-82.5 62q-62 37 -88.5 66.5t-26.5 72.5q0 52 42 89t108 37q88 0 154 -76l-17 -14q-62 70 -138 70q-57 0 -92 -31t-35 -73q0 -36 25.5 -64t82.5 -61q59 -34 86.5 -66t27.5 -76
q0 -53 -43 -93t-112 -40z" />
    <glyph glyph-name="t" unicode="t" horiz-adv-x="315" 
d="M157 -7q-45 0 -69 21t-24 60q0 21 8 51l88 364h-68l4 19h69l40 165h21l-40 -165h151l-5 -19h-151l-88 -363q-8 -30 -8 -50q0 -63 74 -63q32 0 61 13l-5 -22q-25 -11 -58 -11z" />
    <glyph glyph-name="u" unicode="u" horiz-adv-x="522" 
d="M198 -10q-67 0 -105 37t-38 105q0 36 15 100l67 276h21l-67 -275q-14 -56 -14 -100q0 -59 31.5 -91t92.5 -32q70 0 128.5 53.5t81.5 144.5l72 300h21l-124 -508h-21l29 116q-26 -53 -75 -89.5t-115 -36.5z" />
    <glyph glyph-name="v" unicode="v" horiz-adv-x="480" 
d="M165 -4l-70 512h22l62 -479l297 479h24l-319 -512h-16z" />
    <glyph glyph-name="w" unicode="w" horiz-adv-x="698" 
d="M127 -4l-28 512h21l23 -473l256 475h18l22 -475l252 473h23l-274 -512h-18l-24 471l-254 -471h-17z" />
    <glyph glyph-name="x" unicode="x" horiz-adv-x="451" 
d="M125 508l104 -232l218 232h26l-235 -250l117 -258h-22l-110 243l-227 -243h-26l245 261l-112 247h22z" />
    <glyph glyph-name="y" unicode="y" horiz-adv-x="489" 
d="M175 4l-81 504h22l75 -480l294 480h24l-309 -500q-60 -98 -99 -129.5t-80 -31.5q-49 0 -81 27l13 16q31 -24 68 -24q34 0 69 28.5t85 109.5z" />
    <glyph glyph-name="z" unicode="z" horiz-adv-x="414" 
d="M-27 0l2 13l430 476h-305l5 19h333l-2 -13l-430 -477h317l-4 -18h-346z" />
    <glyph glyph-name="braceleft" unicode="{" horiz-adv-x="380" 
d="M243 -139q-132 35 -132 145q0 40 27 119q23 56 23 89q0 27 -22 45t-66 18h-23l5 19h22q66 0 103 37q19 19 30.5 48.5t15 51.5t6.5 60q10 119 56 165q52 52 158 56v-20q-96 -4 -140 -50q-27 -27 -37.5 -65.5t-16.5 -95.5q-8 -114 -53 -160q-29 -29 -84 -37q69 -15 69 -75
q0 -25 -23 -88q-28 -75 -28 -115q0 -51 27.5 -82t88.5 -47z" />
    <glyph glyph-name="bar" unicode="|" horiz-adv-x="242" 
d="M20 -118l223 906h19l-223 -906h-19z" />
    <glyph glyph-name="braceright" unicode="}" horiz-adv-x="380" 
d="M150 714q132 -35 132 -145q0 -40 -27 -119q-23 -56 -23 -89q0 -27 22 -45t66 -18h23l-5 -19h-22q-66 0 -103 -37q-19 -19 -30.5 -48.5t-15 -51.5t-6.5 -60q-10 -119 -56 -165q-52 -52 -158 -56v20q96 4 140 50q27 27 37.5 65.5t16.5 95.5q8 114 53 160q29 29 84 37
q-69 15 -69 75q0 25 23 88q28 75 28 115q0 51 -27.5 82t-88.5 47z" />
    <glyph glyph-name="asciitilde" unicode="~" horiz-adv-x="396" 
d="M93 256l-12 4q32 77 75 77q25 0 56 -33q31 -31 48 -31q32 0 60 63l13 -5q-30 -76 -75 -76q-24 0 -57 33q-28 30 -47 30q-30 0 -61 -62z" />
    <glyph glyph-name="uni00A0" unicode="&#xa0;" horiz-adv-x="230" 
 />
    <glyph glyph-name="exclamdown" unicode="&#xa1;" horiz-adv-x="178" 
d="M154 517l-96 -421l-24 -96h-22l24 96l108 421h10zM210 700l-12 -52h-33l12 52h33z" />
    <glyph glyph-name="cent" unicode="&#xa2;" horiz-adv-x="471" 
d="M388 705h19l-31 -93q69 -15 116 -85l-17 -12q-41 65 -105 79l-158 -481q22 -6 46 -6q74 0 138 57l13 -14q-70 -62 -153 -62q-26 0 -50 6l-34 -100h-19l36 106q-53 20 -85 69.5t-32 121.5q0 71 25.5 139.5t71.5 114.5q72 72 163 72q8 0 26 -2zM94 292q0 -67 27.5 -111.5
t73.5 -62.5l157 478q-14 2 -20 2q-82 0 -147 -65q-43 -43 -67 -108.5t-24 -132.5z" />
    <glyph glyph-name="sterling" unicode="&#xa3;" horiz-adv-x="506" 
d="M-10 0l3 13l79 8l74 303h-79l5 20h79l37 152q28 111 77 159q53 54 126 54q103 0 153 -97l-18 -10q-47 87 -136 87q-63 0 -109 -46q-46 -44 -73 -155l-35 -144h248l-5 -20h-248l-74 -304h313l-4 -20h-413z" />
    <glyph glyph-name="yen" unicode="&#xa5;" horiz-adv-x="577" 
d="M213 0l32 130h-174l6 19h172l35 139h-173l5 19h165l-139 393h22l137 -385l322 385h27l-330 -393h162l-5 -19h-172l-34 -139h171l-5 -19h-171l-31 -130h-22z" />
    <glyph glyph-name="section" unicode="&#xa7;" horiz-adv-x="526" 
d="M494 333q0 -51 -42.5 -82.5t-118.5 -31.5q-28 0 -47 3q51 -29 74 -56.5t23 -61.5q0 -47 -40 -80t-106 -33q-107 0 -182 69l13 15q74 -65 170 -65q56 0 89.5 27t33.5 66t-34 68t-107 62q-70 32 -105 62.5t-35 71.5q0 51 42.5 82.5t118.5 31.5q28 0 46 -3q-96 53 -96 118
q0 47 40 80t106 33q107 0 182 -69l-13 -15q-74 65 -170 65q-56 0 -89.5 -27t-33.5 -66t34 -68t107 -62q70 -32 105 -62.5t35 -71.5zM102 369q0 -32 22 -55t76 -50q58 -28 132 -28q64 0 102 26t38 69q0 32 -22 55t-76 50q-58 28 -132 28q-64 0 -102 -26t-38 -69z" />
    <glyph glyph-name="dieresis" unicode="&#xa8;" 
d="M265 604l11 45h33l-11 -45h-33zM377 604l11 45h32l-11 -45h-32z" />
    <glyph glyph-name="copyright" unicode="&#xa9;" horiz-adv-x="731" 
d="M366 159q-54 0 -88.5 38t-34.5 103q0 53 20 106.5t54 87.5q52 52 117 52q75 0 109 -65l-16 -10q-30 57 -94 57q-57 0 -100 -45q-32 -32 -51 -82.5t-19 -100.5q0 -57 29.5 -90t76.5 -33q53 0 103 48l12 -14q-56 -52 -118 -52zM711 411q0 -88 -32.5 -174.5t-92.5 -146.5
q-102 -102 -239 -102q-129 0 -205.5 85t-76.5 216q0 88 32.5 174.5t92.5 146.5q102 102 239 102q129 0 205.5 -85t76.5 -216zM83 286q0 -119 70.5 -200t195.5 -81q127 0 224 95q58 58 89 142.5t31 171.5q0 119 -70.5 200t-194.5 81q-128 0 -225 -95q-58 -58 -89 -142.5
t-31 -171.5z" />
    <glyph glyph-name="ordfeminine" unicode="&#xaa;" horiz-adv-x="358" 
d="M200 410q-31 0 -53.5 19.5t-22.5 54.5q0 44 30.5 73.5t79.5 29.5q46 0 95 -18l3 13q5 19 5 40q0 31 -20.5 47t-56.5 16q-31 0 -69 -14l-4 16q39 15 75 15q43 0 68.5 -20.5t25.5 -58.5q0 -15 -5 -40l-41 -167h-18l13 55q-38 -61 -105 -61zM203 427q42 0 73 27.5t42 69.5
l7 30q-46 17 -92 17q-42 0 -66 -24.5t-24 -61.5q0 -28 17 -43t43 -15zM78 324l4 15h214l-4 -15h-214z" />
    <glyph glyph-name="guillemotleft" unicode="&#xab;" horiz-adv-x="413" 
d="M140 47l-105 205l1 6l205 204l13 -11l-195 -199l96 -197zM294 47l-105 205l1 6l204 204l13 -11l-195 -199l97 -197z" />
    <glyph glyph-name="registered" unicode="&#xae;" horiz-adv-x="383" 
d="M280 712q64 0 101.5 -41t37.5 -104q0 -98 -62 -158q-50 -50 -118 -50q-63 0 -100.5 41.5t-37.5 103.5q0 96 62 158q48 50 117 50zM240 372q61 0 106 45q59 58 59 150q0 56 -33.5 94t-92.5 38q-60 0 -105 -45q-59 -59 -59 -151q0 -55 33 -93t92 -38zM218 519l-18 -71h-16
l44 180h49q59 0 59 -49q0 -48 -54 -59l28 -72h-17l-29 71h-46zM222 534h36q36 0 51 15q11 11 11 30q0 35 -46 35h-34z" />
    <glyph glyph-name="macron" unicode="&#xaf;" 
d="M226 609l5 19h225l-5 -19h-225z" />
    <glyph glyph-name="degree" unicode="&#xb0;" horiz-adv-x="369" 
d="M259 706q46 0 75.5 -32t29.5 -84q0 -83 -54 -139q-42 -40 -93 -40q-47 0 -76.5 32t-29.5 84q0 84 55 139q40 40 93 40zM217 429q44 0 78 34q49 49 49 127q0 44 -23.5 70.5t-62.5 26.5q-45 0 -78 -33q-49 -49 -49 -127q0 -44 23.5 -71t62.5 -27z" />
    <glyph glyph-name="plusminus" unicode="&#xb1;" horiz-adv-x="515" 
d="M228 175l47 188h-188l4 19h188l47 187h20l-47 -187h189l-4 -19h-189l-47 -188h-20zM5 35l4 18h396l-3 -18h-397z" />
    <glyph glyph-name="acute" unicode="&#xb4;" 
d="M268 588l108 115l23 -12l-116 -103h-15z" />
    <glyph glyph-name="paragraph" unicode="&#xb6;" horiz-adv-x="411" 
d="M237 0l66 271q-105 0 -159 54q-48 48 -48 127q0 102 67 169q79 79 226 79h41l-171 -700h-22z" />
    <glyph glyph-name="periodcentered" unicode="&#xb7;" horiz-adv-x="144" 
d="M58 262l13 52h33l-13 -52h-33z" />
    <glyph glyph-name="cedilla" unicode="&#xb8;" 
d="M121 -128l-20 11l107 124h15z" />
    <glyph glyph-name="ordmasculine" unicode="&#xba;" horiz-adv-x="360" 
d="M79 324l3 15h236l-4 -15h-235zM148 527q0 -45 23.5 -72t61.5 -27q45 0 79 34q47 47 47 126q0 45 -23.5 72t-61.5 27q-45 0 -79 -34q-47 -49 -47 -126zM379 589q0 -85 -53 -138q-41 -41 -94 -41q-45 0 -74 32.5t-29 83.5q0 84 52 138q41 41 94 41q45 0 74.5 -32.5
t29.5 -83.5z" />
    <glyph glyph-name="guillemotright" unicode="&#xbb;" horiz-adv-x="413" 
d="M267 461l105 -205l-1 -6l-205 -204l-13 11l195 199l-96 197zM113 461l105 -205l-1 -6l-204 -204l-13 11l195 199l-97 197z" />
    <glyph glyph-name="questiondown" unicode="&#xbf;" horiz-adv-x="435" 
d="M311 517l-33 -162l-3 -4q-103 -15 -168.5 -65t-65.5 -132q0 -64 42.5 -102.5t113.5 -38.5q89 0 171 73l13 -16q-87 -78 -185 -78q-81 0 -129 45.5t-48 115.5q0 87 65.5 141t172.5 74l44 149h10zM366 700l-12 -52h-34l13 52h33z" />
    <glyph glyph-name="Agrave" unicode="&#xc0;" horiz-adv-x="646" 
d="M-23 0l450 705h20l103 -705h-21l-30 210h-364l-133 -210h-25zM148 230h348l-65 443zM430 762l-76 87l23 12l67 -99h-14z" />
    <glyph glyph-name="Aacute" unicode="&#xc1;" horiz-adv-x="646" 
d="M-23 0l450 705h20l103 -705h-21l-30 210h-364l-133 -210h-25zM148 230h348l-65 443zM437 762l111 99l22 -12l-116 -87h-17z" />
    <glyph glyph-name="Acircumflex" unicode="&#xc2;" horiz-adv-x="646" 
d="M-23 0l450 705h20l103 -705h-21l-30 210h-364l-133 -210h-25zM148 230h348l-65 443zM343 759l118 97h17l70 -97h-17l-65 75l-102 -75h-21z" />
    <glyph glyph-name="Atilde" unicode="&#xc3;" horiz-adv-x="646" 
d="M-23 0l450 705h20l103 -705h-21l-30 210h-364l-133 -210h-25zM148 230h348l-65 443zM344 769l-13 3q28 69 76 69q22 0 59 -26q34 -23 50 -23q31 0 59 52l13 -3q-29 -69 -75 -69q-21 0 -59 26q-37 24 -50 24q-33 0 -60 -53z" />
    <glyph glyph-name="Adieresis" unicode="&#xc4;" horiz-adv-x="646" 
d="M-23 0l450 705h20l103 -705h-21l-30 210h-364l-133 -210h-25zM148 230h348l-65 443zM378 778l11 46h34l-11 -46h-34zM497 778l11 46h35l-11 -46h-35z" />
    <glyph glyph-name="Aring" unicode="&#xc5;" horiz-adv-x="646" 
d="M-23 0l433 678q-55 15 -55 70q0 38 31 64t72 26q39 0 61.5 -20.5t22.5 -52.5q0 -36 -26.5 -61t-64.5 -29l99 -675h-21l-30 210h-364l-133 -210h-25zM148 230h348l-65 442zM442 690q32 0 57 21.5t25 52.5q0 26 -18 42.5t-50 16.5q-33 0 -58 -21.5t-25 -52.5
q0 -26 18.5 -42.5t50.5 -16.5z" />
    <glyph glyph-name="AE" unicode="&#xc6;" horiz-adv-x="853" 
d="M-53 0l540 700h418l-5 -20h-371l-78 -318h337l-5 -20h-337l-79 -322h376l-5 -20h-397l51 210h-258l-161 -210h-26zM150 230h247l110 450h-11z" />
    <glyph glyph-name="Ccedilla" unicode="&#xc7;" horiz-adv-x="598" 
d="M205 -128l-20 11l93 108q-88 11 -144 80t-56 181q0 99 36.5 197t102.5 164q98 98 220 98q136 0 198 -116l-19 -10q-57 106 -179 106q-115 0 -203 -90q-63 -63 -98.5 -157t-35.5 -193q0 -112 59.5 -177t150.5 -65q103 0 194 84l15 -16q-96 -88 -211 -88q-10 0 -15 1z" />
    <glyph glyph-name="Egrave" unicode="&#xc8;" horiz-adv-x="552" 
d="M389 757l-76 87l23 12l67 -99h-14zM29 0l171 700h403l-5 -20h-381l-78 -318h347l-5 -20h-346l-80 -322h386l-5 -20h-407z" />
    <glyph glyph-name="Eacute" unicode="&#xc9;" horiz-adv-x="552" 
d="M395 757l111 99l22 -12l-116 -87h-17zM29 0l171 700h403l-5 -20h-381l-78 -318h347l-5 -20h-346l-80 -322h386l-5 -20h-407z" />
    <glyph glyph-name="Ecircumflex" unicode="&#xca;" horiz-adv-x="552" 
d="M29 0l171 700h403l-5 -20h-381l-78 -318h347l-5 -20h-346l-80 -322h386l-5 -20h-407zM301 758l118 97h17l70 -97h-17l-65 75l-102 -75h-21z" />
    <glyph glyph-name="Edieresis" unicode="&#xcb;" horiz-adv-x="552" 
d="M336 773l11 46h34l-11 -46h-34zM455 773l11 46h35l-11 -46h-35zM29 0l171 700h403l-5 -20h-381l-78 -318h347l-5 -20h-346l-80 -322h386l-5 -20h-407z" />
    <glyph glyph-name="Igrave" unicode="&#xcc;" horiz-adv-x="215" 
d="M35 0l171 700h22l-171 -700h-22zM211 757l-76 87l23 12l67 -99h-14z" />
    <glyph glyph-name="Iacute" unicode="&#xcd;" horiz-adv-x="215" 
d="M35 0l171 700h22l-171 -700h-22zM218 757l111 99l22 -12l-116 -87h-17z" />
    <glyph glyph-name="Icircumflex" unicode="&#xce;" horiz-adv-x="215" 
d="M35 0l171 700h22l-171 -700h-22zM124 758l118 97h17l70 -97h-17l-65 75l-102 -75h-21z" />
    <glyph glyph-name="Idieresis" unicode="&#xcf;" horiz-adv-x="215" 
d="M35 0l171 700h22l-171 -700h-22zM159 773l11 46h34l-11 -46h-34zM278 773l11 46h35l-11 -46h-35z" />
    <glyph glyph-name="Eth" unicode="&#xd0;" horiz-adv-x="641" 
d="M48 342l5 20h66l83 338h112q150 0 229 -79q71 -71 71 -195q0 -84 -31 -169.5t-89 -143.5q-113 -113 -298 -113h-165l83 342h-66zM527 606q-71 74 -210 74h-99l-77 -318h203l-5 -20h-203l-79 -322h142q174 0 279 107q54 53 84 135.5t30 163.5q0 117 -65 180z" />
    <glyph glyph-name="Ntilde" unicode="&#xd1;" horiz-adv-x="664" 
d="M346 759l-13 3q28 69 76 69q22 0 59 -26q34 -23 50 -23q31 0 59 52l13 -3q-29 -69 -75 -69q-21 0 -59 26q-37 24 -50 24q-33 0 -60 -53zM29 0l171 700h20l279 -662l163 662h21l-172 -700h-19l-280 665l-162 -665h-21z" />
    <glyph glyph-name="Ograve" unicode="&#xd2;" horiz-adv-x="698" 
d="M448 762l-76 87l23 12l67 -99h-14zM425 711q108 0 174.5 -76.5t66.5 -201.5q0 -96 -36 -192t-100 -159q-93 -93 -210 -93q-107 0 -173.5 76.5t-66.5 201.5q0 96 36 192t99 159q93 93 210 93zM321 9q108 0 194 86q60 60 94.5 153t34.5 185q0 116 -61 187t-159 71
q-109 0 -193 -86q-60 -60 -94.5 -153t-34.5 -185q0 -116 60.5 -187t158.5 -71z" />
    <glyph glyph-name="Oacute" unicode="&#xd3;" horiz-adv-x="698" 
d="M454 762l111 99l22 -12l-116 -87h-17zM425 711q108 0 174.5 -76.5t66.5 -201.5q0 -96 -36 -192t-100 -159q-93 -93 -210 -93q-107 0 -173.5 76.5t-66.5 201.5q0 96 36 192t99 159q93 93 210 93zM321 9q108 0 194 86q60 60 94.5 153t34.5 185q0 116 -61 187t-159 71
q-109 0 -193 -86q-60 -60 -94.5 -153t-34.5 -185q0 -116 60.5 -187t158.5 -71z" />
    <glyph glyph-name="Ocircumflex" unicode="&#xd4;" horiz-adv-x="698" 
d="M425 711q108 0 174.5 -76.5t66.5 -201.5q0 -96 -36 -192t-100 -159q-93 -93 -210 -93q-107 0 -173.5 76.5t-66.5 201.5q0 96 36 192t99 159q93 93 210 93zM321 9q108 0 194 86q60 60 94.5 153t34.5 185q0 116 -61 187t-159 71q-109 0 -193 -86q-60 -60 -94.5 -153
t-34.5 -185q0 -116 60.5 -187t158.5 -71zM361 763l118 97h17l70 -97h-17l-65 75l-102 -75h-21z" />
    <glyph glyph-name="Otilde" unicode="&#xd5;" horiz-adv-x="698" 
d="M361 769l-13 3q28 69 76 69q22 0 59 -26q34 -23 50 -23q31 0 59 52l13 -3q-29 -69 -75 -69q-21 0 -59 26q-37 24 -50 24q-33 0 -60 -53zM425 711q108 0 174.5 -76.5t66.5 -201.5q0 -96 -36 -192t-100 -159q-93 -93 -210 -93q-107 0 -173.5 76.5t-66.5 201.5q0 96 36 192
t99 159q93 93 210 93zM321 9q108 0 194 86q60 60 94.5 153t34.5 185q0 116 -61 187t-159 71q-109 0 -193 -86q-60 -60 -94.5 -153t-34.5 -185q0 -116 60.5 -187t158.5 -71z" />
    <glyph glyph-name="Odieresis" unicode="&#xd6;" horiz-adv-x="698" 
d="M395 778l11 46h34l-11 -46h-34zM514 778l11 46h35l-11 -46h-35zM425 711q108 0 174.5 -76.5t66.5 -201.5q0 -96 -36 -192t-100 -159q-93 -93 -210 -93q-107 0 -173.5 76.5t-66.5 201.5q0 96 36 192t99 159q93 93 210 93zM321 9q108 0 194 86q60 60 94.5 153t34.5 185
q0 116 -61 187t-159 71q-109 0 -193 -86q-60 -60 -94.5 -153t-34.5 -185q0 -116 60.5 -187t158.5 -71z" />
    <glyph glyph-name="multiply" unicode="&#xd7;" horiz-adv-x="514" 
d="M74 173l-13 15l204 166l-120 164l17 13l118 -165l203 166l13 -16l-204 -165l119 -165l-17 -13l-117 165z" />
    <glyph glyph-name="Oslash" unicode="&#xd8;" horiz-adv-x="698" 
d="M425 711q125 0 192 -100l98 95h26l-114 -113q39 -69 39 -160q0 -95 -36.5 -192t-98.5 -159q-93 -93 -211 -93q-124 0 -191 100l-99 -95h-26l114 112q-38 67 -38 161q0 95 36 192t98 159q93 93 211 93zM102 267q0 -84 32 -145l468 473q-61 96 -178 96q-108 0 -194 -86
q-59 -58 -93.5 -152.5t-34.5 -185.5zM321 9q109 0 195 86q58 59 93 153.5t35 184.5q0 84 -32 145l-469 -473q60 -96 178 -96z" />
    <glyph glyph-name="Ugrave" unicode="&#xd9;" horiz-adv-x="640" 
d="M416 752l-76 87l23 12l67 -99h-14zM284 -10q-92 0 -149.5 49t-57.5 144q0 47 16 114l98 403h22l-99 -405q-15 -63 -15 -110q0 -86 51.5 -130.5t135.5 -44.5q96 0 162 66q60 62 92 189l105 435h22l-107 -441q-33 -132 -97 -197q-73 -72 -179 -72z" />
    <glyph glyph-name="Uacute" unicode="&#xda;" horiz-adv-x="640" 
d="M423 752l111 99l22 -12l-116 -87h-17zM284 -10q-92 0 -149.5 49t-57.5 144q0 47 16 114l98 403h22l-99 -405q-15 -63 -15 -110q0 -86 51.5 -130.5t135.5 -44.5q96 0 162 66q60 62 92 189l105 435h22l-107 -441q-33 -132 -97 -197q-73 -72 -179 -72z" />
    <glyph glyph-name="Ucircumflex" unicode="&#xdb;" horiz-adv-x="640" 
d="M284 -10q-92 0 -149.5 49t-57.5 144q0 47 16 114l98 403h22l-99 -405q-15 -63 -15 -110q0 -86 51.5 -130.5t135.5 -44.5q96 0 162 66q60 62 92 189l105 435h22l-107 -441q-33 -132 -97 -197q-73 -72 -179 -72zM329 753l118 97h17l70 -97h-17l-65 75l-102 -75h-21z" />
    <glyph glyph-name="Udieresis" unicode="&#xdc;" horiz-adv-x="640" 
d="M364 768l11 46h34l-11 -46h-34zM483 768l11 46h35l-11 -46h-35zM284 -10q-92 0 -149.5 49t-57.5 144q0 47 16 114l98 403h22l-99 -405q-15 -63 -15 -110q0 -86 51.5 -130.5t135.5 -44.5q96 0 162 66q60 62 92 189l105 435h22l-107 -441q-33 -132 -97 -197
q-73 -72 -179 -72z" />
    <glyph glyph-name="Yacute" unicode="&#xdd;" horiz-adv-x="559" 
d="M203 0l72 297l-146 403h22l139 -384l328 384h27l-348 -406l-72 -294h-22zM377 752l111 99l22 -12l-116 -87h-17z" />
    <glyph glyph-name="Thorn" unicode="&#xde;" horiz-adv-x="567" 
d="M29 0l171 700h21l-32 -131h139q120 0 175 -57q45 -45 45 -123q0 -98 -65 -163q-86 -84 -241 -84h-157l-35 -142h-21zM89 162h154q144 0 222 76q61 63 61 151q0 69 -40 109q-49 51 -159 51h-143z" />
    <glyph glyph-name="germandbls" unicode="&#xdf;" horiz-adv-x="494" 
d="M163 -2l4 20q111 -1 178 50t67 133q0 123 -163 158l4 17q99 17 156.5 68t57.5 136q0 56 -33.5 91.5t-91.5 35.5q-63 0 -109 -49.5t-67 -136.5l-127 -521h-21l129 525q25 100 75 149q50 52 120 52q66 0 106.5 -40.5t40.5 -105.5q0 -82 -54.5 -138t-143.5 -76
q143 -40 143 -165q0 -90 -74 -148t-197 -55z" />
    <glyph glyph-name="agrave" unicode="&#xe0;" horiz-adv-x="486" 
d="M159 -10q-57 0 -98.5 35.5t-41.5 97.5q0 81 51 131q51 53 150 53q88 0 176 -31l7 29q9 43 9 71q0 57 -40 88t-107 31q-58 0 -122 -24l-6 20q66 24 130 24q75 0 120.5 -36t45.5 -103q0 -32 -10 -72l-74 -304h-21l27 108q-67 -118 -196 -118zM162 9q78 0 136 54t78 133
l15 60q-84 31 -173 31q-86 0 -132 -46q-45 -43 -45 -116q0 -55 35.5 -85.5t85.5 -30.5zM303 589l-72 103l24 12l59 -115h-11z" />
    <glyph glyph-name="aacute" unicode="&#xe1;" horiz-adv-x="486" 
d="M159 -10q-57 0 -98.5 35.5t-41.5 97.5q0 81 51 131q51 53 150 53q88 0 176 -31l7 29q9 43 9 71q0 57 -40 88t-107 31q-58 0 -122 -24l-6 20q66 24 130 24q75 0 120.5 -36t45.5 -103q0 -32 -10 -72l-74 -304h-21l27 108q-67 -118 -196 -118zM162 9q78 0 136 54t78 133
l15 60q-84 31 -173 31q-86 0 -132 -46q-45 -43 -45 -116q0 -55 35.5 -85.5t85.5 -30.5zM302 589l108 115l23 -12l-116 -103h-15z" />
    <glyph glyph-name="acircumflex" unicode="&#xe2;" horiz-adv-x="486" 
d="M159 -10q-57 0 -98.5 35.5t-41.5 97.5q0 81 51 131q51 53 150 53q88 0 176 -31l7 29q9 43 9 71q0 57 -40 88t-107 31q-58 0 -122 -24l-6 20q66 24 130 24q75 0 120.5 -36t45.5 -103q0 -32 -10 -72l-74 -304h-21l27 108q-67 -118 -196 -118zM162 9q78 0 136 54t78 133
l15 60q-84 31 -173 31q-86 0 -132 -46q-45 -43 -45 -116q0 -55 35.5 -85.5t85.5 -30.5zM214 591l121 116h13l65 -116h-15l-61 91l-105 -91h-18z" />
    <glyph glyph-name="atilde" unicode="&#xe3;" horiz-adv-x="486" 
d="M159 -10q-57 0 -98.5 35.5t-41.5 97.5q0 81 51 131q51 53 150 53q88 0 176 -31l7 29q9 43 9 71q0 57 -40 88t-107 31q-58 0 -122 -24l-6 20q66 24 130 24q75 0 120.5 -36t45.5 -103q0 -32 -10 -72l-74 -304h-21l27 108q-67 -118 -196 -118zM162 9q78 0 136 54t78 133
l15 60q-84 31 -173 31q-86 0 -132 -46q-45 -43 -45 -116q0 -55 35.5 -85.5t85.5 -30.5zM439 679l14 -3q-29 -76 -75 -76q-19 0 -58 29q-32 27 -49 27q-33 0 -58 -59l-14 3q29 76 75 76q22 0 58 -31q33 -26 48 -26q32 0 59 60z" />
    <glyph glyph-name="adieresis" unicode="&#xe4;" horiz-adv-x="486" 
d="M159 -10q-57 0 -98.5 35.5t-41.5 97.5q0 81 51 131q51 53 150 53q88 0 176 -31l7 29q9 43 9 71q0 57 -40 88t-107 31q-58 0 -122 -24l-6 20q66 24 130 24q75 0 120.5 -36t45.5 -103q0 -32 -10 -72l-74 -304h-21l27 108q-67 -118 -196 -118zM162 9q78 0 136 54t78 133
l15 60q-84 31 -173 31q-86 0 -132 -46q-45 -43 -45 -116q0 -55 35.5 -85.5t85.5 -30.5zM247 605l11 45h33l-11 -45h-33zM359 605l11 45h32l-11 -45h-32z" />
    <glyph glyph-name="aring" unicode="&#xe5;" horiz-adv-x="486" 
d="M159 -10q-57 0 -98.5 35.5t-41.5 97.5q0 81 51 131q51 53 150 53q88 0 176 -31l7 29q9 43 9 71q0 57 -40 88t-107 31q-58 0 -122 -24l-6 20q66 24 130 24q75 0 120.5 -36t45.5 -103q0 -32 -10 -72l-74 -304h-21l27 108q-67 -118 -196 -118zM162 9q78 0 136 54t78 133
l15 60q-84 31 -173 31q-86 0 -132 -46q-45 -43 -45 -116q0 -55 35.5 -85.5t85.5 -30.5zM425 685q0 -39 -29 -66t-65 -27t-58.5 22t-22.5 56q0 38 28.5 65.5t65.5 27.5q36 0 58.5 -22t22.5 -56zM267 671q0 -29 17.5 -46.5t46.5 -17.5q31 0 54 22.5t23 54.5q0 28 -17.5 46
t-47.5 18t-53 -23t-23 -54z" />
    <glyph glyph-name="ae" unicode="&#xe6;" horiz-adv-x="840" 
d="M574 -10q-71 0 -119 35.5t-64 101.5q-93 -137 -228 -137q-61 0 -102.5 36t-41.5 99q0 79 51 129q51 53 151 53q87 0 175 -31l7 29q9 43 9 71q0 57 -40 88t-107 31q-58 0 -122 -24l-6 20q66 24 130 24q76 0 121.5 -37t43.5 -106q32 63 88 104.5t120 41.5q79 0 119 -51.5
t40 -130.5q0 -40 -14 -89h-376q-4 -24 -4 -55q0 -86 45.5 -134t124.5 -48q80 0 148 55l12 -17q-75 -58 -161 -58zM165 9q66 0 124.5 39.5t97.5 106.5q-6 44 3 101q-84 31 -172 31q-86 0 -132 -46q-45 -43 -45 -114q0 -55 36 -86.5t88 -31.5zM501 436q-66 -66 -88 -169h355
q9 41 9 69q0 71 -34 116.5t-103 45.5q-77 0 -139 -62z" />
    <glyph glyph-name="ccedilla" unicode="&#xe7;" horiz-adv-x="457" 
d="M119 -128l-20 11l94 110q-66 10 -109.5 63.5t-43.5 137.5q0 70 26.5 137t72.5 114q73 73 164 73q102 0 157 -91l-17 -12q-50 82 -142 82q-82 0 -145 -65q-43 -43 -68.5 -107.5t-25.5 -130.5q0 -86 47.5 -135t115.5 -49q72 0 139 58l13 -15q-72 -63 -154 -63q-10 0 -15 1z
" />
    <glyph glyph-name="egrave" unicode="&#xe8;" horiz-adv-x="500" 
d="M445 247h-378q-4 -24 -4 -55q0 -86 45.5 -134t124.5 -48q80 0 149 55l12 -17q-75 -58 -161 -58q-88 0 -139.5 53t-51.5 147q0 72 27.5 141.5t74.5 116.5q70 70 155 70q80 0 120 -51.5t40 -130.5q-2 -45 -14 -89zM160 436q-65 -65 -89 -169h357q9 41 9 69
q0 71 -34.5 116.5t-103.5 45.5q-75 0 -139 -62zM318 589l-72 103l24 12l59 -115h-11z" />
    <glyph glyph-name="eacute" unicode="&#xe9;" horiz-adv-x="500" 
d="M445 247h-378q-4 -24 -4 -55q0 -86 45.5 -134t124.5 -48q80 0 149 55l12 -17q-75 -58 -161 -58q-88 0 -139.5 53t-51.5 147q0 72 27.5 141.5t74.5 116.5q70 70 155 70q80 0 120 -51.5t40 -130.5q-2 -45 -14 -89zM160 436q-65 -65 -89 -169h357q9 41 9 69
q0 71 -34.5 116.5t-103.5 45.5q-75 0 -139 -62zM318 589l108 115l23 -12l-116 -103h-15z" />
    <glyph glyph-name="ecircumflex" unicode="&#xea;" horiz-adv-x="500" 
d="M445 247h-378q-4 -24 -4 -55q0 -86 45.5 -134t124.5 -48q80 0 149 55l12 -17q-75 -58 -161 -58q-88 0 -139.5 53t-51.5 147q0 72 27.5 141.5t74.5 116.5q70 70 155 70q80 0 120 -51.5t40 -130.5q-2 -45 -14 -89zM160 436q-65 -65 -89 -169h357q9 41 9 69
q0 71 -34.5 116.5t-103.5 45.5q-75 0 -139 -62zM231 591l121 116h13l65 -116h-15l-61 91l-105 -91h-18z" />
    <glyph glyph-name="edieresis" unicode="&#xeb;" horiz-adv-x="500" 
d="M445 247h-378q-4 -24 -4 -55q0 -86 45.5 -134t124.5 -48q80 0 149 55l12 -17q-75 -58 -161 -58q-88 0 -139.5 53t-51.5 147q0 72 27.5 141.5t74.5 116.5q70 70 155 70q80 0 120 -51.5t40 -130.5q-2 -45 -14 -89zM160 436q-65 -65 -89 -169h357q9 41 9 69
q0 71 -34.5 116.5t-103.5 45.5q-75 0 -139 -62zM264 605l11 45h33l-11 -45h-33zM376 605l11 45h32l-11 -45h-32z" />
    <glyph glyph-name="igrave" unicode="&#xec;" horiz-adv-x="194" 
d="M24 0l123 508h21l-123 -508h-21zM165 588l-72 103l24 12l59 -115h-11z" />
    <glyph glyph-name="iacute" unicode="&#xed;" horiz-adv-x="194" 
d="M166 588l108 115l23 -12l-116 -103h-15zM24 0l123 508h21l-123 -508h-21z" />
    <glyph glyph-name="icircumflex" unicode="&#xee;" horiz-adv-x="194" 
d="M77 590l121 116h13l65 -116h-15l-61 91l-105 -91h-18zM24 0l123 508h21l-123 -508h-21z" />
    <glyph glyph-name="idieresis" unicode="&#xef;" horiz-adv-x="194" 
d="M111 604l11 45h33l-11 -45h-33zM223 604l11 45h32l-11 -45h-32zM24 0l123 508h21l-123 -508h-21z" />
    <glyph glyph-name="eth" unicode="&#xf0;" horiz-adv-x="525" 
d="M234 584l-7 17l126 58q-20 28 -50 63h26q15 -18 43 -54l103 47l7 -16l-99 -46q102 -149 102 -310q0 -182 -104 -286q-67 -67 -156 -67q-84 0 -133 56t-49 148q0 72 26.5 141.5t73.5 116.5q67 67 155 67q116 0 166 -114q-21 122 -101 239zM226 10q81 0 141 62
q44 44 69.5 109.5t25.5 132.5q0 81 -45.5 133t-119.5 52q-78 0 -139 -61q-43 -43 -68 -108.5t-25 -133.5q0 -85 43 -135.5t118 -50.5z" />
    <glyph glyph-name="ntilde" unicode="&#xf1;" horiz-adv-x="522" 
d="M18 0l124 508h21l-29 -116q27 54 76 90t114 36q67 0 105.5 -37.5t38.5 -105.5q0 -36 -15 -99l-67 -276h-21l67 275q14 56 14 99q0 59 -32 91.5t-93 32.5q-70 0 -128.5 -54t-80.5 -145l-73 -299h-21zM460 679l14 -3q-29 -76 -75 -76q-19 0 -58 29q-32 27 -49 27
q-33 0 -58 -59l-14 3q29 76 75 76q22 0 58 -31q33 -26 48 -26q32 0 59 60z" />
    <glyph glyph-name="ograve" unicode="&#xf2;" horiz-adv-x="531" 
d="M303 518q83 0 135 -57t52 -147q0 -71 -26 -138.5t-74 -115.5q-70 -70 -162 -70q-83 0 -135 56.5t-52 147.5q0 70 26 138t74 116q70 70 162 70zM229 10q82 0 146 64q43 43 68 107.5t25 130.5q0 82 -45.5 134t-120.5 52q-83 0 -146 -65q-43 -43 -68 -107t-25 -131
q0 -81 45.5 -133t120.5 -52zM331 589l-72 103l24 12l59 -115h-11z" />
    <glyph glyph-name="oacute" unicode="&#xf3;" horiz-adv-x="531" 
d="M330 589l108 115l23 -12l-116 -103h-15zM303 518q83 0 135 -57t52 -147q0 -71 -26 -138.5t-74 -115.5q-70 -70 -162 -70q-83 0 -135 56.5t-52 147.5q0 70 26 138t74 116q70 70 162 70zM229 10q82 0 146 64q43 43 68 107.5t25 130.5q0 82 -45.5 134t-120.5 52
q-83 0 -146 -65q-43 -43 -68 -107t-25 -131q0 -81 45.5 -133t120.5 -52z" />
    <glyph glyph-name="ocircumflex" unicode="&#xf4;" horiz-adv-x="531" 
d="M242 591l121 116h13l65 -116h-15l-61 91l-105 -91h-18zM303 518q83 0 135 -57t52 -147q0 -71 -26 -138.5t-74 -115.5q-70 -70 -162 -70q-83 0 -135 56.5t-52 147.5q0 70 26 138t74 116q70 70 162 70zM229 10q82 0 146 64q43 43 68 107.5t25 130.5q0 82 -45.5 134
t-120.5 52q-83 0 -146 -65q-43 -43 -68 -107t-25 -131q0 -81 45.5 -133t120.5 -52z" />
    <glyph glyph-name="otilde" unicode="&#xf5;" horiz-adv-x="531" 
d="M303 518q83 0 135 -57t52 -147q0 -71 -26 -138.5t-74 -115.5q-70 -70 -162 -70q-83 0 -135 56.5t-52 147.5q0 70 26 138t74 116q70 70 162 70zM229 10q82 0 146 64q43 43 68 107.5t25 130.5q0 82 -45.5 134t-120.5 52q-83 0 -146 -65q-43 -43 -68 -107t-25 -131
q0 -81 45.5 -133t120.5 -52zM467 679l14 -3q-29 -76 -75 -76q-19 0 -58 29q-32 27 -49 27q-33 0 -58 -59l-14 3q29 76 75 76q22 0 58 -31q33 -26 48 -26q32 0 59 60z" />
    <glyph glyph-name="odieresis" unicode="&#xf6;" horiz-adv-x="531" 
d="M276 605l11 45h33l-11 -45h-33zM388 605l11 45h32l-11 -45h-32zM303 518q83 0 135 -57t52 -147q0 -71 -26 -138.5t-74 -115.5q-70 -70 -162 -70q-83 0 -135 56.5t-52 147.5q0 70 26 138t74 116q70 70 162 70zM229 10q82 0 146 64q43 43 68 107.5t25 130.5q0 82 -45.5 134
t-120.5 52q-83 0 -146 -65q-43 -43 -68 -107t-25 -131q0 -81 45.5 -133t120.5 -52z" />
    <glyph glyph-name="divide" unicode="&#xf7;" horiz-adv-x="515" 
d="M212 144l12 49h33l-12 -49h-33zM80 343l5 18h397l-5 -18h-397zM305 511l12 49h33l-13 -49h-32z" />
    <glyph glyph-name="oslash" unicode="&#xf8;" horiz-adv-x="531" 
d="M303 518q92 0 145 -69l68 64h25l-82 -80q31 -51 31 -119q0 -71 -26 -138.5t-74 -115.5q-70 -70 -162 -70q-93 0 -146 69l-67 -64h-24l81 80q-31 50 -31 119q0 70 26 138t74 116q70 70 162 70zM468 312q0 60 -25 105l-346 -343q46 -64 132 -64q82 0 146 64q43 43 68 107.5
t25 130.5zM302 498q-83 0 -146 -65q-43 -43 -68 -107t-25 -131q0 -61 24 -105l346 343q-47 65 -131 65z" />
    <glyph glyph-name="ugrave" unicode="&#xf9;" horiz-adv-x="522" 
d="M198 -10q-67 0 -105 37t-38 105q0 36 15 100l67 276h21l-67 -275q-14 -56 -14 -100q0 -59 31.5 -91t92.5 -32q70 0 128.5 53.5t81.5 144.5l72 300h21l-124 -508h-21l29 116q-26 -53 -75 -89.5t-115 -36.5zM321 583l-72 103l24 12l59 -115h-11z" />
    <glyph glyph-name="uacute" unicode="&#xfa;" horiz-adv-x="522" 
d="M320 583l108 115l23 -12l-116 -103h-15zM198 -10q-67 0 -105 37t-38 105q0 36 15 100l67 276h21l-67 -275q-14 -56 -14 -100q0 -59 31.5 -91t92.5 -32q70 0 128.5 53.5t81.5 144.5l72 300h21l-124 -508h-21l29 116q-26 -53 -75 -89.5t-115 -36.5z" />
    <glyph glyph-name="ucircumflex" unicode="&#xfb;" horiz-adv-x="522" 
d="M233 585l121 116h13l65 -116h-15l-61 91l-105 -91h-18zM198 -10q-67 0 -105 37t-38 105q0 36 15 100l67 276h21l-67 -275q-14 -56 -14 -100q0 -59 31.5 -91t92.5 -32q70 0 128.5 53.5t81.5 144.5l72 300h21l-124 -508h-21l29 116q-26 -53 -75 -89.5t-115 -36.5z" />
    <glyph glyph-name="udieresis" unicode="&#xfc;" horiz-adv-x="522" 
d="M265 599l11 45h33l-11 -45h-33zM377 599l11 45h32l-11 -45h-32zM198 -10q-67 0 -105 37t-38 105q0 36 15 100l67 276h21l-67 -275q-14 -56 -14 -100q0 -59 31.5 -91t92.5 -32q70 0 128.5 53.5t81.5 144.5l72 300h21l-124 -508h-21l29 116q-26 -53 -75 -89.5t-115 -36.5z
" />
    <glyph glyph-name="yacute" unicode="&#xfd;" horiz-adv-x="489" 
d="M175 4l-81 504h22l75 -480l294 480h24l-309 -500q-60 -98 -99 -129.5t-80 -31.5q-49 0 -81 27l13 16q31 -24 68 -24q34 0 69 28.5t85 109.5zM297 583l108 115l23 -12l-116 -103h-15z" />
    <glyph glyph-name="thorn" unicode="&#xfe;" horiz-adv-x="554" 
d="M216 722l-84 -340q25 49 81 92.5t125 43.5q76 0 123 -56t47 -141q0 -73 -27 -145t-75 -120q-66 -66 -151 -66q-80 0 -125 51t-52 116l-75 -307h-21l213 872h21zM254 10q78 0 136 60q44 44 70 112.5t26 136.5q0 77 -41.5 128t-107.5 51q-81 0 -146 -65q-45 -45 -72 -110
t-27 -127q0 -78 44 -132t118 -54z" />
    <glyph glyph-name="ydieresis" unicode="&#xff;" horiz-adv-x="489" 
d="M175 4l-81 504h22l75 -480l294 480h24l-309 -500q-60 -98 -99 -129.5t-80 -31.5q-49 0 -81 27l13 16q31 -24 68 -24q34 0 69 28.5t85 109.5zM243 599l11 45h33l-11 -45h-33zM355 599l11 45h32l-11 -45h-32z" />
    <glyph glyph-name="Amacron" unicode="&#x100;" horiz-adv-x="646" 
d="M-23 0l450 705h20l103 -705h-21l-30 210h-364l-133 -210h-25zM148 230h348l-65 443zM339 783l4 20h236l-5 -20h-235z" />
    <glyph glyph-name="amacron" unicode="&#x101;" horiz-adv-x="486" 
d="M159 -10q-57 0 -98.5 35.5t-41.5 97.5q0 81 51 131q51 53 150 53q88 0 176 -31l7 29q9 43 9 71q0 57 -40 88t-107 31q-58 0 -122 -24l-6 20q66 24 130 24q75 0 120.5 -36t45.5 -103q0 -32 -10 -72l-74 -304h-21l27 108q-67 -118 -196 -118zM162 9q78 0 136 54t78 133
l15 60q-84 31 -173 31q-86 0 -132 -46q-45 -43 -45 -116q0 -55 35.5 -85.5t85.5 -30.5zM208 610l5 19h225l-5 -19h-225z" />
    <glyph glyph-name="Abreve" unicode="&#x102;" horiz-adv-x="646" 
d="M-23 0l450 705h20l103 -705h-21l-30 210h-364l-133 -210h-25zM148 230h348l-65 443zM454 762q-50 0 -75.5 22.5t-22.5 60.5h17q0 -64 81 -64q82 0 114 64h18q-35 -83 -132 -83z" />
    <glyph glyph-name="abreve" unicode="&#x103;" horiz-adv-x="486" 
d="M159 -10q-57 0 -98.5 35.5t-41.5 97.5q0 81 51 131q51 53 150 53q88 0 176 -31l7 29q9 43 9 71q0 57 -40 88t-107 31q-58 0 -122 -24l-6 20q66 24 130 24q75 0 120.5 -36t45.5 -103q0 -32 -10 -72l-74 -304h-21l27 108q-67 -118 -196 -118zM162 9q78 0 136 54t78 133
l15 60q-84 31 -173 31q-86 0 -132 -46q-45 -43 -45 -116q0 -55 35.5 -85.5t85.5 -30.5zM317 590q-48 0 -73 27t-20 70h17q-2 -36 17 -57.5t61 -21.5q78 0 116 79h17q-39 -97 -135 -97z" />
    <glyph glyph-name="Aogonek" unicode="&#x104;" horiz-adv-x="646" 
d="M537 -126l-4 -15q-2 -1 -5 -1q-35 0 -55.5 15t-20.5 37q0 41 76 94l-29 206h-364l-133 -210h-25l450 705h20l103 -705h-6q-70 -53 -70 -87q0 -36 63 -39zM148 230h348l-65 443z" />
    <glyph glyph-name="aogonek" unicode="&#x105;" horiz-adv-x="486" 
d="M338 -126l-4 -15q-2 -1 -5 -1q-35 0 -55.5 15t-20.5 37q0 41 76 94l26 104q-67 -118 -196 -118q-57 0 -98.5 35.5t-41.5 97.5q0 81 51 131q51 53 150 53q88 0 176 -31l7 29q9 43 9 71q0 57 -40 88t-107 31q-58 0 -122 -24l-6 20q66 24 130 24q75 0 120.5 -36t45.5 -103
q0 -32 -10 -72l-74 -304h-4q-70 -53 -70 -87q0 -36 63 -39zM162 9q78 0 136 54t78 133l15 60q-84 31 -173 31q-86 0 -132 -46q-45 -43 -45 -116q0 -55 35.5 -85.5t85.5 -30.5z" />
    <glyph glyph-name="Cacute" unicode="&#x106;" horiz-adv-x="596" 
d="M308 -11q-99 0 -164.5 70.5t-65.5 192.5q0 99 36.5 197t102.5 164q98 98 220 98q136 0 198 -116l-19 -10q-57 106 -179 106q-115 0 -203 -90q-63 -63 -98.5 -157t-35.5 -193q0 -112 59.5 -177t150.5 -65q103 0 194 84l15 -16q-96 -88 -211 -88zM444 762l111 99l22 -12
l-116 -87h-17z" />
    <glyph glyph-name="cacute" unicode="&#x107;" horiz-adv-x="457" 
d="M313 589l108 115l23 -12l-116 -103h-15zM223 -10q-76 0 -129.5 55t-53.5 149q0 70 26.5 137t72.5 114q73 73 164 73q102 0 157 -91l-17 -12q-50 82 -142 82q-82 0 -145 -65q-43 -43 -68.5 -107.5t-25.5 -130.5q0 -86 47.5 -135t115.5 -49q72 0 139 58l13 -15
q-72 -63 -154 -63z" />
    <glyph glyph-name="Cdotaccent" unicode="&#x10a;" horiz-adv-x="596" 
d="M444 778l11 46h35l-12 -46h-34zM308 -11q-99 0 -164.5 70.5t-65.5 192.5q0 99 36.5 197t102.5 164q98 98 220 98q136 0 198 -116l-19 -10q-57 106 -179 106q-115 0 -203 -90q-63 -63 -98.5 -157t-35.5 -193q0 -112 59.5 -177t150.5 -65q103 0 194 84l15 -16
q-96 -88 -211 -88z" />
    <glyph glyph-name="cdotaccent" unicode="&#x10b;" horiz-adv-x="457" 
d="M223 -10q-76 0 -129.5 55t-53.5 149q0 70 26.5 137t72.5 114q73 73 164 73q102 0 157 -91l-17 -12q-50 82 -142 82q-82 0 -145 -65q-43 -43 -68.5 -107.5t-25.5 -130.5q0 -86 47.5 -135t115.5 -49q72 0 139 58l13 -15q-72 -63 -154 -63zM315 605l12 45h32l-11 -45h-33z
" />
    <glyph glyph-name="Ccaron" unicode="&#x10c;" horiz-adv-x="596" 
d="M308 -11q-99 0 -164.5 70.5t-65.5 192.5q0 99 36.5 197t102.5 164q98 98 220 98q136 0 198 -116l-19 -10q-57 106 -179 106q-115 0 -203 -90q-63 -63 -98.5 -157t-35.5 -193q0 -112 59.5 -177t150.5 -65q103 0 194 84l15 -16q-96 -88 -211 -88zM587 860l-117 -97h-17
l-71 97h17l66 -74l101 74h21z" />
    <glyph glyph-name="ccaron" unicode="&#x10d;" horiz-adv-x="457" 
d="M322 591l-64 116h14l61 -91l105 91h19l-122 -116h-13zM223 -10q-76 0 -129.5 55t-53.5 149q0 70 26.5 137t72.5 114q73 73 164 73q102 0 157 -91l-17 -12q-50 82 -142 82q-82 0 -145 -65q-43 -43 -68.5 -107.5t-25.5 -130.5q0 -86 47.5 -135t115.5 -49q72 0 139 58
l13 -15q-72 -63 -154 -63z" />
    <glyph glyph-name="Dcaron" unicode="&#x10e;" horiz-adv-x="643" 
d="M29 0l171 700h111q151 0 230 -79q70 -70 70 -195q0 -84 -31 -170t-88 -143q-113 -113 -298 -113h-165zM525 606q-71 74 -211 74h-98l-161 -660h141q175 0 280 107q54 54 83.5 136t29.5 163q0 116 -64 180zM542 855l-117 -97h-17l-71 97h17l66 -74l101 74h21z" />
    <glyph glyph-name="dcaron" unicode="&#x10f;" horiz-adv-x="553" 
d="M611 573l50 149h23v-2l-62 -147h-11zM388 0l30 126q-24 -48 -80.5 -92t-125.5 -44q-76 0 -122.5 55.5t-46.5 141.5q0 73 27 145t75 119q67 67 151 67q80 0 125 -51t51 -116l92 371h21l-176 -722h-21zM214 10q81 0 145 64q45 45 72 110t27 128q0 78 -43.5 132t-117.5 54
q-76 0 -136 -60q-45 -44 -70.5 -112.5t-25.5 -137.5q0 -77 41.5 -127.5t107.5 -50.5z" />
    <glyph glyph-name="Dcroat" unicode="&#x110;" horiz-adv-x="641" 
d="M48 342l5 20h66l83 338h112q150 0 229 -79q71 -71 71 -195q0 -84 -31 -169.5t-89 -143.5q-113 -113 -298 -113h-165l83 342h-66zM527 606q-71 74 -210 74h-99l-77 -318h203l-5 -20h-203l-79 -322h142q174 0 279 107q54 53 84 135.5t30 163.5q0 117 -65 180z" />
    <glyph glyph-name="dcroat" unicode="&#x111;" horiz-adv-x="553" 
d="M378 615l4 18h160l22 89h21l-22 -89h64l-5 -18h-63l-150 -615h-21l30 126q-24 -48 -80.5 -92t-125.5 -44q-76 0 -122.5 55.5t-46.5 141.5q0 73 27 145t75 119q67 67 151 67q80 0 125 -51t51 -116l65 264h-159zM214 10q81 0 145 64q45 45 72 110t27 128q0 78 -43.5 132
t-117.5 54q-76 0 -136 -60q-45 -44 -70.5 -112.5t-25.5 -137.5q0 -77 41.5 -127.5t107.5 -50.5z" />
    <glyph glyph-name="Emacron" unicode="&#x112;" horiz-adv-x="552" 
d="M297 778l4 20h236l-5 -20h-235zM29 0l171 700h403l-5 -20h-381l-78 -318h347l-5 -20h-346l-80 -322h386l-5 -20h-407z" />
    <glyph glyph-name="emacron" unicode="&#x113;" horiz-adv-x="500" 
d="M445 247h-378q-4 -24 -4 -55q0 -86 45.5 -134t124.5 -48q80 0 149 55l12 -17q-75 -58 -161 -58q-88 0 -139.5 53t-51.5 147q0 72 27.5 141.5t74.5 116.5q70 70 155 70q80 0 120 -51.5t40 -130.5q-2 -45 -14 -89zM160 436q-65 -65 -89 -169h357q9 41 9 69
q0 71 -34.5 116.5t-103.5 45.5q-75 0 -139 -62zM224 610l5 19h225l-5 -19h-225z" />
    <glyph glyph-name="Ebreve" unicode="&#x114;" horiz-adv-x="552" 
d="M412 757q-50 0 -75.5 22.5t-22.5 60.5h17q0 -64 81 -64q82 0 114 64h18q-35 -83 -132 -83zM29 0l171 700h403l-5 -20h-381l-78 -318h347l-5 -20h-346l-80 -322h386l-5 -20h-407z" />
    <glyph glyph-name="ebreve" unicode="&#x115;" horiz-adv-x="500" 
d="M445 247h-378q-4 -24 -4 -55q0 -86 45.5 -134t124.5 -48q80 0 149 55l12 -17q-75 -58 -161 -58q-88 0 -139.5 53t-51.5 147q0 72 27.5 141.5t74.5 116.5q70 70 155 70q80 0 120 -51.5t40 -130.5q-2 -45 -14 -89zM160 436q-65 -65 -89 -169h357q9 41 9 69
q0 71 -34.5 116.5t-103.5 45.5q-75 0 -139 -62zM333 590q-48 0 -73 27t-20 70h17q-2 -36 17 -57.5t61 -21.5q78 0 116 79h17q-39 -97 -135 -97z" />
    <glyph glyph-name="Edotaccent" unicode="&#x116;" horiz-adv-x="552" 
d="M396 773l11 46h35l-12 -46h-34zM29 0l171 700h403l-5 -20h-381l-78 -318h347l-5 -20h-346l-80 -322h386l-5 -20h-407z" />
    <glyph glyph-name="edotaccent" unicode="&#x117;" horiz-adv-x="500" 
d="M445 247h-378q-4 -24 -4 -55q0 -86 45.5 -134t124.5 -48q80 0 149 55l12 -17q-75 -58 -161 -58q-88 0 -139.5 53t-51.5 147q0 72 27.5 141.5t74.5 116.5q70 70 155 70q80 0 120 -51.5t40 -130.5q-2 -45 -14 -89zM160 436q-65 -65 -89 -169h357q9 41 9 69
q0 71 -34.5 116.5t-103.5 45.5q-75 0 -139 -62zM320 605l12 45h32l-11 -45h-33z" />
    <glyph glyph-name="Eogonek" unicode="&#x118;" horiz-adv-x="552" 
d="M29 0l171 700h403l-5 -20h-381l-78 -318h347l-5 -20h-346l-80 -322h386l-5 -20h-20q-70 -53 -70 -87q0 -36 63 -39l-4 -15q-2 -1 -5 -1q-35 0 -55.5 15t-20.5 37q0 41 70 90h-365z" />
    <glyph glyph-name="eogonek" unicode="&#x119;" horiz-adv-x="500" 
d="M382 65l12 -17q-8 -6 -52 -34t-64 -48q-28 -28 -28 -53q0 -36 62 -39l-3 -15l-5 -1q-36 0 -56.5 14.5t-20.5 37.5q0 40 69 89q-30 -9 -63 -9q-88 0 -139.5 53t-51.5 147q0 72 27.5 141.5t74.5 116.5q70 70 155 70q80 0 120 -51.5t40 -130.5q-2 -45 -14 -89h-378
q-4 -24 -4 -55q0 -86 45.5 -134t124.5 -48q80 0 149 55zM160 436q-65 -65 -89 -169h357q9 41 9 69q0 71 -34.5 116.5t-103.5 45.5q-75 0 -139 -62z" />
    <glyph glyph-name="Ecaron" unicode="&#x11a;" horiz-adv-x="552" 
d="M538 855l-117 -97h-17l-71 97h17l66 -74l101 74h21zM29 0l171 700h403l-5 -20h-381l-78 -318h347l-5 -20h-346l-80 -322h386l-5 -20h-407z" />
    <glyph glyph-name="ecaron" unicode="&#x11b;" horiz-adv-x="500" 
d="M445 247h-378q-4 -24 -4 -55q0 -86 45.5 -134t124.5 -48q80 0 149 55l12 -17q-75 -58 -161 -58q-88 0 -139.5 53t-51.5 147q0 72 27.5 141.5t74.5 116.5q70 70 155 70q80 0 120 -51.5t40 -130.5q-2 -45 -14 -89zM160 436q-65 -65 -89 -169h357q9 41 9 69
q0 71 -34.5 116.5t-103.5 45.5q-75 0 -139 -62zM326 591l-64 116h14l61 -91l105 91h19l-122 -116h-13z" />
    <glyph glyph-name="Gbreve" unicode="&#x11e;" horiz-adv-x="650" 
d="M475 762q-50 0 -75.5 22.5t-22.5 60.5h17q0 -64 81 -64q82 0 114 64h18q-35 -83 -132 -83zM329 -11q-113 0 -180.5 75.5t-67.5 201.5q0 95 35.5 187t98.5 154q102 104 238 104q125 0 201 -98l-18 -13q-67 91 -183 91q-124 0 -222 -96q-59 -59 -93.5 -148t-34.5 -180
q0 -116 62 -187t166 -71q93 0 171 52l69 267h-204l5 22h226l-77 -302q-90 -59 -192 -59z" />
    <glyph glyph-name="gbreve" unicode="&#x11f;" horiz-adv-x="550" 
d="M190 -150q-52 0 -105 19t-90 51l13 16q35 -31 84 -48.5t98 -17.5q92 0 145 53q41 39 65 136l24 98q-32 -52 -85 -88.5t-119 -36.5q-73 0 -122 51.5t-49 130.5q0 67 25 130t69 107q69 67 156 67q76 0 121 -49.5t52 -108.5l37 148h21l-110 -449q-26 -105 -70 -148
q-61 -61 -160 -61zM223 52q85 0 150 67q39 39 61.5 95t22.5 107q0 70 -43.5 123.5t-115.5 53.5q-77 0 -139 -60q-41 -41 -64.5 -100.5t-23.5 -121.5q0 -71 42.5 -117.5t109.5 -46.5zM352 590q-48 0 -73 27t-20 70h17q-2 -36 17 -57.5t61 -21.5q78 0 116 79h17
q-39 -97 -135 -97z" />
    <glyph glyph-name="Gdotaccent" unicode="&#x120;" horiz-adv-x="650" 
d="M460 778l11 46h35l-12 -46h-34zM329 -11q-113 0 -180.5 75.5t-67.5 201.5q0 95 35.5 187t98.5 154q102 104 238 104q125 0 201 -98l-18 -13q-67 91 -183 91q-124 0 -222 -96q-59 -59 -93.5 -148t-34.5 -180q0 -116 62 -187t166 -71q93 0 171 52l69 267h-204l5 22h226
l-77 -302q-90 -59 -192 -59z" />
    <glyph glyph-name="gdotaccent" unicode="&#x121;" horiz-adv-x="550" 
d="M190 -150q-52 0 -105 19t-90 51l13 16q35 -31 84 -48.5t98 -17.5q92 0 145 53q41 39 65 136l24 98q-32 -52 -85 -88.5t-119 -36.5q-73 0 -122 51.5t-49 130.5q0 67 25 130t69 107q69 67 156 67q76 0 121 -49.5t52 -108.5l37 148h21l-110 -449q-26 -105 -70 -148
q-61 -61 -160 -61zM223 52q85 0 150 67q39 39 61.5 95t22.5 107q0 70 -43.5 123.5t-115.5 53.5q-77 0 -139 -60q-41 -41 -64.5 -100.5t-23.5 -121.5q0 -71 42.5 -117.5t109.5 -46.5zM339 605l12 45h32l-11 -45h-33z" />
    <glyph glyph-name="Gcommaaccent" unicode="&#x122;" horiz-adv-x="650" 
d="M225 -183l-4 13q27 14 36 48h-15l12 48h33l-9 -36q-9 -34 -20.5 -49t-32.5 -24zM329 -11q-113 0 -180.5 75.5t-67.5 201.5q0 95 35.5 187t98.5 154q102 104 238 104q125 0 201 -98l-18 -13q-67 91 -183 91q-124 0 -222 -96q-59 -59 -93.5 -148t-34.5 -180q0 -116 62 -187
t166 -71q93 0 171 52l69 267h-204l5 22h226l-77 -302q-90 -59 -192 -59z" />
    <glyph glyph-name="gcommaaccent" unicode="&#x123;" horiz-adv-x="550" 
d="M397 714l4 -13q-27 -14 -36 -48h15l-12 -48h-33l9 36q9 34 20.5 49t32.5 24zM190 -150q-52 0 -105 19t-90 51l13 16q35 -31 84 -48.5t98 -17.5q92 0 145 53q41 39 65 136l24 98q-32 -52 -85 -88.5t-119 -36.5q-73 0 -122 51.5t-49 130.5q0 67 25 130t69 107q69 67 156 67
q76 0 121 -49.5t52 -108.5l37 148h21l-110 -449q-26 -105 -70 -148q-61 -61 -160 -61zM223 52q85 0 150 67q39 39 61.5 95t22.5 107q0 70 -43.5 123.5t-115.5 53.5q-77 0 -139 -60q-41 -41 -64.5 -100.5t-23.5 -121.5q0 -71 42.5 -117.5t109.5 -46.5z" />
    <glyph glyph-name="Hbar" unicode="&#x126;" horiz-adv-x="646" 
d="M93 541l6 19h67l35 140h22l-35 -140h419l34 140h22l-35 -140h69l-6 -19h-67l-132 -541h-22l84 343h-418l-84 -343h-22l132 541h-69zM140 363h419l43 178h-418z" />
    <glyph glyph-name="hbar" unicode="&#x127;" horiz-adv-x="522" 
d="M106 615l4 18h63l22 89h21l-22 -89h161l-5 -18h-161l-55 -223q27 54 76 90t114 36q67 0 105.5 -37.5t38.5 -105.5q0 -36 -15 -99l-67 -276h-21l67 275q14 56 14 99q0 59 -32 91.5t-93 32.5q-70 0 -128.5 -54t-80.5 -145l-73 -299h-21l151 615h-63z" />
    <glyph glyph-name="Imacron" unicode="&#x12a;" horiz-adv-x="215" 
d="M35 0l171 700h22l-171 -700h-22zM120 778l4 20h236l-5 -20h-235z" />
    <glyph glyph-name="imacron" unicode="&#x12b;" horiz-adv-x="194" 
d="M24 0l123 508h21l-123 -508h-21zM71 609l5 19h225l-5 -19h-225z" />
    <glyph glyph-name="Ibreve" unicode="&#x12c;" horiz-adv-x="215" 
d="M35 0l171 700h22l-171 -700h-22zM235 757q-50 0 -75.5 22.5t-22.5 60.5h17q0 -64 81 -64q82 0 114 64h18q-35 -83 -132 -83z" />
    <glyph glyph-name="ibreve" unicode="&#x12d;" horiz-adv-x="194" 
d="M24 0l123 508h21l-123 -508h-21zM180 589q-48 0 -73 27t-20 70h17q-2 -36 17 -57.5t61 -21.5q78 0 116 79h17q-39 -97 -135 -97z" />
    <glyph glyph-name="Iogonek" unicode="&#x12e;" horiz-adv-x="219" 
d="M46 -126l-4 -15q-2 -1 -5 -1q-35 0 -55.5 15t-20.5 37q0 42 74 93l171 697h22l-171 -700h-4q-70 -53 -70 -87q0 -36 63 -39z" />
    <glyph glyph-name="iogonek" unicode="&#x12f;" horiz-adv-x="194" 
d="M35 -126l-4 -15q-2 -1 -5 -1q-35 0 -55.5 15t-20.5 37q0 42 74 93l124 505h21l-124 -508h-3q-70 -54 -70 -87q0 -36 63 -39zM177 645l14 57h29l-14 -57h-29z" />
    <glyph glyph-name="Idotaccent" unicode="&#x130;" horiz-adv-x="215" 
d="M35 0l171 700h22l-171 -700h-22zM219 773l11 46h35l-12 -46h-34z" />
    <glyph glyph-name="dotlessi" unicode="&#x131;" horiz-adv-x="194" 
d="M24 0l123 508h21l-123 -508h-21z" />
    <glyph glyph-name="Kcommaaccent" unicode="&#x136;" horiz-adv-x="588" 
d="M175 -177l-4 13q27 14 36 48h-15l12 48h33l-9 -36q-9 -34 -20.5 -49t-32.5 -24zM29 0l171 700h22l-114 -460l505 460h31l-333 -301l175 -399h-23l-168 384l-194 -175l-50 -209h-22z" />
    <glyph glyph-name="kcommaaccent" unicode="&#x137;" horiz-adv-x="457" 
d="M108 -177l-4 13q27 14 36 48h-15l12 48h33l-9 -36q-9 -34 -20.5 -49t-32.5 -24zM18 0l177 722h21l-135 -550l365 336h28l-241 -220l126 -288h-21l-120 273l-144 -131l-35 -142h-21z" />
    <glyph glyph-name="Lacute" unicode="&#x139;" horiz-adv-x="487" 
d="M220 757l111 99l22 -12l-116 -87h-17zM29 0l171 700h22l-167 -680h350l-4 -20h-372z" />
    <glyph glyph-name="lacute" unicode="&#x13a;" horiz-adv-x="193" 
d="M213 772l111 99l22 -12l-116 -87h-17zM24 0l177 722h21l-177 -722h-21z" />
    <glyph glyph-name="Lcommaaccent" unicode="&#x13b;" horiz-adv-x="487" 
d="M144 -180l-4 13q27 14 36 48h-15l12 48h33l-9 -36q-9 -34 -20.5 -49t-32.5 -24zM29 0l171 700h22l-167 -680h350l-4 -20h-372z" />
    <glyph glyph-name="lcommaaccent" unicode="&#x13c;" horiz-adv-x="193" 
d="M-26 -180l-4 13q27 14 36 48h-15l12 48h33l-9 -36q-9 -34 -20.5 -49t-32.5 -24zM24 0l177 722h21l-177 -722h-21z" />
    <glyph glyph-name="Lcaron" unicode="&#x13d;" horiz-adv-x="487" 
d="M276 551l50 149h23v-2l-62 -147h-11zM29 0l171 700h22l-167 -680h350l-4 -20h-372z" />
    <glyph glyph-name="lcaron" unicode="&#x13e;" horiz-adv-x="193" 
d="M247 573l50 149h23v-2l-62 -147h-11zM24 0l177 722h21l-177 -722h-21z" />
    <glyph glyph-name="Ldot" unicode="&#x13f;" horiz-adv-x="487" 
d="M363 325l13 51h29l-13 -51h-29zM29 0l171 700h22l-167 -680h350l-4 -20h-372z" />
    <glyph glyph-name="ldot" unicode="&#x140;" horiz-adv-x="201" 
d="M198 331l13 52h29l-13 -52h-29zM24 0l177 722h21l-177 -722h-21z" />
    <glyph glyph-name="Lslash" unicode="&#x141;" horiz-adv-x="506" 
d="M36 291l6 22l89 33l87 354h22l-85 -346l214 79l-5 -22l-215 -79l-76 -312h350l-4 -20h-372l79 324z" />
    <glyph glyph-name="lslash" unicode="&#x142;" horiz-adv-x="226" 
d="M45 319l5 21l81 32l86 350h21l-84 -340l81 32l-5 -22l-81 -32l-88 -360h-21l86 351z" />
    <glyph glyph-name="Nacute" unicode="&#x143;" horiz-adv-x="664" 
d="M439 752l111 99l22 -12l-116 -87h-17zM29 0l171 700h20l279 -662l163 662h21l-172 -700h-19l-280 665l-162 -665h-21z" />
    <glyph glyph-name="nacute" unicode="&#x144;" horiz-adv-x="522" 
d="M323 589l108 115l23 -12l-116 -103h-15zM18 0l124 508h21l-29 -116q27 54 76 90t114 36q67 0 105.5 -37.5t38.5 -105.5q0 -36 -15 -99l-67 -276h-21l67 275q14 56 14 99q0 59 -32 91.5t-93 32.5q-70 0 -128.5 -54t-80.5 -145l-73 -299h-21z" />
    <glyph glyph-name="Ncommaaccent" unicode="&#x145;" horiz-adv-x="664" 
d="M209 -177l-4 13q27 14 36 48h-15l12 48h33l-9 -36q-9 -34 -20.5 -49t-32.5 -24zM29 0l171 700h20l279 -662l163 662h21l-172 -700h-19l-280 665l-162 -665h-21z" />
    <glyph glyph-name="ncommaaccent" unicode="&#x146;" horiz-adv-x="522" 
d="M131 -177l-4 13q27 14 36 48h-15l12 48h33l-9 -36q-9 -34 -20.5 -49t-32.5 -24zM18 0l124 508h21l-29 -116q27 54 76 90t114 36q67 0 105.5 -37.5t38.5 -105.5q0 -36 -15 -99l-67 -276h-21l67 275q14 56 14 99q0 59 -32 91.5t-93 32.5q-70 0 -128.5 -54t-80.5 -145
l-73 -299h-21z" />
    <glyph glyph-name="Ncaron" unicode="&#x147;" horiz-adv-x="664" 
d="M582 850l-117 -97h-17l-71 97h17l66 -74l101 74h21zM29 0l171 700h20l279 -662l163 662h21l-172 -700h-19l-280 665l-162 -665h-21z" />
    <glyph glyph-name="ncaron" unicode="&#x148;" horiz-adv-x="522" 
d="M331 591l-64 116h14l61 -91l105 91h19l-122 -116h-13zM18 0l124 508h21l-29 -116q27 54 76 90t114 36q67 0 105.5 -37.5t38.5 -105.5q0 -36 -15 -99l-67 -276h-21l67 275q14 56 14 99q0 59 -32 91.5t-93 32.5q-70 0 -128.5 -54t-80.5 -145l-73 -299h-21z" />
    <glyph glyph-name="Omacron" unicode="&#x14c;" horiz-adv-x="698" 
d="M356 783l4 20h236l-5 -20h-235zM425 711q108 0 174.5 -76.5t66.5 -201.5q0 -96 -36 -192t-100 -159q-93 -93 -210 -93q-107 0 -173.5 76.5t-66.5 201.5q0 96 36 192t99 159q93 93 210 93zM321 9q108 0 194 86q60 60 94.5 153t34.5 185q0 116 -61 187t-159 71
q-109 0 -193 -86q-60 -60 -94.5 -153t-34.5 -185q0 -116 60.5 -187t158.5 -71z" />
    <glyph glyph-name="omacron" unicode="&#x14d;" horiz-adv-x="531" 
d="M236 610l5 19h225l-5 -19h-225zM303 518q83 0 135 -57t52 -147q0 -71 -26 -138.5t-74 -115.5q-70 -70 -162 -70q-83 0 -135 56.5t-52 147.5q0 70 26 138t74 116q70 70 162 70zM229 10q82 0 146 64q43 43 68 107.5t25 130.5q0 82 -45.5 134t-120.5 52q-83 0 -146 -65
q-43 -43 -68 -107t-25 -131q0 -81 45.5 -133t120.5 -52z" />
    <glyph glyph-name="Obreve" unicode="&#x14e;" horiz-adv-x="698" 
d="M470 762q-50 0 -75.5 22.5t-22.5 60.5h17q0 -64 81 -64q82 0 114 64h18q-35 -83 -132 -83zM425 711q108 0 174.5 -76.5t66.5 -201.5q0 -96 -36 -192t-100 -159q-93 -93 -210 -93q-107 0 -173.5 76.5t-66.5 201.5q0 96 36 192t99 159q93 93 210 93zM321 9q108 0 194 86
q60 60 94.5 153t34.5 185q0 116 -61 187t-159 71q-109 0 -193 -86q-60 -60 -94.5 -153t-34.5 -185q0 -116 60.5 -187t158.5 -71z" />
    <glyph glyph-name="obreve" unicode="&#x14f;" horiz-adv-x="531" 
d="M303 518q83 0 135 -57t52 -147q0 -71 -26 -138.5t-74 -115.5q-70 -70 -162 -70q-83 0 -135 56.5t-52 147.5q0 70 26 138t74 116q70 70 162 70zM229 10q82 0 146 64q43 43 68 107.5t25 130.5q0 82 -45.5 134t-120.5 52q-83 0 -146 -65q-43 -43 -68 -107t-25 -131
q0 -81 45.5 -133t120.5 -52zM345 590q-48 0 -73 27t-20 70h17q-2 -36 17 -57.5t61 -21.5q78 0 116 79h17q-39 -97 -135 -97z" />
    <glyph glyph-name="Ohungarumlaut" unicode="&#x150;" horiz-adv-x="698" 
d="M425 711q108 0 174.5 -76.5t66.5 -201.5q0 -96 -36 -192t-100 -159q-93 -93 -210 -93q-107 0 -173.5 76.5t-66.5 201.5q0 96 36 192t99 159q93 93 210 93zM321 9q108 0 194 86q60 60 94.5 153t34.5 185q0 116 -61 187t-159 71q-109 0 -193 -86q-60 -60 -94.5 -153
t-34.5 -185q0 -116 60.5 -187t158.5 -71zM391 762l112 99l22 -12l-116 -87h-18zM496 762l110 99l22 -12l-115 -87h-17z" />
    <glyph glyph-name="ohungarumlaut" unicode="&#x151;" horiz-adv-x="531" 
d="M271 589l107 115l24 -12l-116 -103h-15zM376 589l107 115l24 -12l-116 -103h-15zM303 518q83 0 135 -57t52 -147q0 -71 -26 -138.5t-74 -115.5q-70 -70 -162 -70q-83 0 -135 56.5t-52 147.5q0 70 26 138t74 116q70 70 162 70zM229 10q82 0 146 64q43 43 68 107.5
t25 130.5q0 82 -45.5 134t-120.5 52q-83 0 -146 -65q-43 -43 -68 -107t-25 -131q0 -81 45.5 -133t120.5 -52z" />
    <glyph glyph-name="OE" unicode="&#x152;" horiz-adv-x="965" 
d="M379 0q-151 0 -230 79q-70 72 -70 195q0 84 31 170t89 143q111 113 297 113h520l-5 -20h-371l-78 -318h337l-5 -20h-337l-79 -322h375l-4 -20h-470zM166 94q71 -74 210 -74h80l161 660h-123q-173 0 -280 -107q-54 -54 -83.5 -136t-29.5 -163q0 -115 65 -180z" />
    <glyph glyph-name="oe" unicode="&#x153;" horiz-adv-x="913" 
d="M858 247h-377q-4 -24 -4 -55q0 -86 45.5 -134t124.5 -48q80 0 148 55l12 -17q-75 -58 -161 -58q-82 0 -132 47t-57 132q-30 -76 -92 -127.5t-140 -51.5q-83 0 -133.5 56.5t-50.5 147.5q0 70 26 138t74 116q70 70 162 70q77 0 126.5 -50t56.5 -133q30 77 91.5 130
t135.5 53q79 0 119 -51.5t40 -130.5q-2 -45 -14 -89zM227 10q82 0 147 65q43 43 68.5 107t25.5 129q0 83 -45 135t-121 52q-83 0 -146 -65q-43 -43 -68 -107t-25 -131q0 -81 44 -133t120 -52zM573 436q-66 -66 -88 -169h356q9 41 9 69q0 71 -34 116.5t-103 45.5
q-76 0 -140 -62z" />
    <glyph glyph-name="Racute" unicode="&#x154;" horiz-adv-x="611" 
d="M467 0l-134 301h-32h-177l-73 -301h-22l171 700h183q116 0 171 -55q45 -47 45 -118q0 -91 -58 -149q-65 -65 -187 -75l137 -303h-24zM129 321h173q154 0 222 68q53 55 53 137q0 65 -38 103q-51 51 -159 51h-163zM381 757l111 99l22 -12l-116 -87h-17z" />
    <glyph glyph-name="racute" unicode="&#x155;" horiz-adv-x="295" 
d="M223 588l108 115l23 -12l-116 -103h-15zM18 0l124 508h21l-33 -133q38 66 95.5 104.5t114.5 37.5l-4 -21h-2q-64 0 -134 -60.5t-91 -147.5l-70 -288h-21z" />
    <glyph glyph-name="Rcommaaccent" unicode="&#x156;" horiz-adv-x="611" 
d="M467 0l-134 301h-32h-177l-73 -301h-22l171 700h183q116 0 171 -55q45 -47 45 -118q0 -91 -58 -149q-65 -65 -187 -75l137 -303h-24zM129 321h173q154 0 222 68q53 55 53 137q0 65 -38 103q-51 51 -159 51h-163zM149 -177l-4 13q27 14 36 48h-15l12 48h33l-9 -36
q-9 -34 -20.5 -49t-32.5 -24z" />
    <glyph glyph-name="rcommaaccent" unicode="&#x157;" horiz-adv-x="295" 
d="M-26 -180l-4 13q27 14 36 48h-15l12 48h33l-9 -36q-9 -34 -20.5 -49t-32.5 -24zM18 0l124 508h21l-33 -133q38 66 95.5 104.5t114.5 37.5l-4 -21h-2q-64 0 -134 -60.5t-91 -147.5l-70 -288h-21z" />
    <glyph glyph-name="Rcaron" unicode="&#x158;" horiz-adv-x="611" 
d="M467 0l-134 301h-32h-177l-73 -301h-22l171 700h183q116 0 171 -55q45 -47 45 -118q0 -91 -58 -149q-65 -65 -187 -75l137 -303h-24zM129 321h173q154 0 222 68q53 55 53 137q0 65 -38 103q-51 51 -159 51h-163zM524 855l-117 -97h-17l-71 97h17l66 -74l101 74h21z" />
    <glyph glyph-name="rcaron" unicode="&#x159;" horiz-adv-x="295" 
d="M231 590l-64 116h14l61 -91l105 91h19l-122 -116h-13zM18 0l124 508h21l-33 -133q38 66 95.5 104.5t114.5 37.5l-4 -21h-2q-64 0 -134 -60.5t-91 -147.5l-70 -288h-21z" />
    <glyph glyph-name="Sacute" unicode="&#x15a;" horiz-adv-x="535" 
d="M246 -9q-143 0 -234 124l18 13q86 -117 218 -117q83 0 135 49.5t52 112.5q0 32 -10.5 57.5t-35.5 48t-44.5 36.5t-59.5 38q-39 24 -57 37t-44 36.5t-37 49t-11 56.5q0 68 50 118q59 59 155 59q119 0 203 -97l-16 -14q-78 91 -189 91q-80 0 -130.5 -46.5t-50.5 -108.5
q0 -34 20 -64t44.5 -48.5t65.5 -45.5l4.5 -3t4 -2.5t4.5 -2.5q79 -48 117.5 -88.5t38.5 -104.5q0 -71 -54 -124q-60 -60 -157 -60zM363 762l111 99l22 -12l-116 -87h-17z" />
    <glyph glyph-name="sacute" unicode="&#x15b;" horiz-adv-x="415" 
d="M264 589l108 115l23 -12l-116 -103h-15zM177 -8q-49 0 -95.5 24t-79.5 64l17 14q73 -82 160 -82q58 0 94.5 34t36.5 77q0 39 -24.5 66t-82.5 62q-62 37 -88.5 66.5t-26.5 72.5q0 52 42 89t108 37q88 0 154 -76l-17 -14q-62 70 -138 70q-57 0 -92 -31t-35 -73
q0 -36 25.5 -64t82.5 -61q59 -34 86.5 -66t27.5 -76q0 -53 -43 -93t-112 -40z" />
    <glyph glyph-name="Scedilla" unicode="&#x15e;" horiz-adv-x="540" 
d="M135 -128l-20 11l95 111q-120 14 -197 121l18 13q86 -117 218 -117q83 0 135 49.5t52 112.5q0 32 -10.5 57.5t-35.5 48t-44.5 36.5t-59.5 38q-39 24 -57 37t-44 36.5t-37 49t-11 56.5q0 68 50 118q59 59 155 59q119 0 203 -97l-16 -14q-78 91 -189 91q-80 0 -130.5 -46.5
t-50.5 -108.5q0 -34 20 -64t44.5 -48.5t65.5 -45.5l4.5 -3t4 -2.5t4.5 -2.5q79 -48 117.5 -88.5t38.5 -104.5q0 -71 -54 -124q-60 -60 -157 -60q-3 0 -11 0.5t-11 0.5z" />
    <glyph glyph-name="scedilla" unicode="&#x15f;" horiz-adv-x="417" 
d="M63 -128l-20 11l97 113q-82 15 -138 84l17 14q73 -82 160 -82q58 0 94.5 34t36.5 77q0 39 -24.5 66t-82.5 62q-62 37 -88.5 66.5t-26.5 72.5q0 52 42 89t108 37q88 0 154 -76l-17 -14q-62 70 -138 70q-57 0 -92 -31t-35 -73q0 -36 25.5 -64t82.5 -61q59 -34 86.5 -66
t27.5 -76q0 -53 -43 -93t-112 -40q-15 0 -23 1z" />
    <glyph glyph-name="Scaron" unicode="&#x160;" horiz-adv-x="535" 
d="M246 -9q-143 0 -234 124l18 13q86 -117 218 -117q83 0 135 49.5t52 112.5q0 32 -10.5 57.5t-35.5 48t-44.5 36.5t-59.5 38q-39 24 -57 37t-44 36.5t-37 49t-11 56.5q0 68 50 118q59 59 155 59q119 0 203 -97l-16 -14q-78 91 -189 91q-80 0 -130.5 -46.5t-50.5 -108.5
q0 -34 20 -64t44.5 -48.5t65.5 -45.5l4.5 -3t4 -2.5t4.5 -2.5q79 -48 117.5 -88.5t38.5 -104.5q0 -71 -54 -124q-60 -60 -157 -60zM506 860l-117 -97h-17l-71 97h17l66 -74l101 74h21z" />
    <glyph glyph-name="scaron" unicode="&#x161;" horiz-adv-x="415" 
d="M272 591l-64 116h14l61 -91l105 91h19l-122 -116h-13zM177 -8q-49 0 -95.5 24t-79.5 64l17 14q73 -82 160 -82q58 0 94.5 34t36.5 77q0 39 -24.5 66t-82.5 62q-62 37 -88.5 66.5t-26.5 72.5q0 52 42 89t108 37q88 0 154 -76l-17 -14q-62 70 -138 70q-57 0 -92 -31
t-35 -73q0 -36 25.5 -64t82.5 -61q59 -34 86.5 -66t27.5 -76q0 -53 -43 -93t-112 -40z" />
    <glyph glyph-name="Tcommaaccent" unicode="&#x162;" horiz-adv-x="485" 
d="M117 -180l-4 13q27 14 36 48h-15l12 48h33l-9 -36q-9 -34 -20.5 -49t-32.5 -24zM166 0l166 680h-209l5 20h441l-5 -20h-210l-166 -680h-22z" />
    <glyph glyph-name="tcommaaccent" unicode="&#x163;" horiz-adv-x="315" 
d="M61 -183l-4 13q27 14 36 48h-15l12 48h33l-9 -36q-9 -34 -20.5 -49t-32.5 -24zM157 -7q-45 0 -69 21t-24 60q0 21 8 51l88 364h-68l4 19h69l40 165h21l-40 -165h151l-5 -19h-151l-88 -363q-8 -30 -8 -50q0 -63 74 -63q32 0 61 13l-5 -22q-25 -11 -58 -11z" />
    <glyph glyph-name="Tcaron" unicode="&#x164;" horiz-adv-x="485" 
d="M491 855l-117 -97h-17l-71 97h17l66 -74l101 74h21zM166 0l166 680h-209l5 20h441l-5 -20h-210l-166 -680h-22z" />
    <glyph glyph-name="tcaron" unicode="&#x165;" horiz-adv-x="315" 
d="M294 573l50 149h23v-2l-62 -147h-11zM157 -7q-45 0 -69 21t-24 60q0 21 8 51l88 364h-68l4 19h69l40 165h21l-40 -165h151l-5 -19h-151l-88 -363q-8 -30 -8 -50q0 -63 74 -63q32 0 61 13l-5 -22q-25 -11 -58 -11z" />
    <glyph glyph-name="Umacron" unicode="&#x16a;" horiz-adv-x="640" 
d="M325 773l4 20h236l-5 -20h-235zM284 -10q-92 0 -149.5 49t-57.5 144q0 47 16 114l98 403h22l-99 -405q-15 -63 -15 -110q0 -86 51.5 -130.5t135.5 -44.5q96 0 162 66q60 62 92 189l105 435h22l-107 -441q-33 -132 -97 -197q-73 -72 -179 -72z" />
    <glyph glyph-name="umacron" unicode="&#x16b;" horiz-adv-x="522" 
d="M198 -10q-67 0 -105 37t-38 105q0 36 15 100l67 276h21l-67 -275q-14 -56 -14 -100q0 -59 31.5 -91t92.5 -32q70 0 128.5 53.5t81.5 144.5l72 300h21l-124 -508h-21l29 116q-26 -53 -75 -89.5t-115 -36.5zM226 604l5 19h225l-5 -19h-225z" />
    <glyph glyph-name="Ubreve" unicode="&#x16c;" horiz-adv-x="640" 
d="M439 752q-50 0 -75.5 22.5t-22.5 60.5h17q0 -64 81 -64q82 0 114 64h18q-35 -83 -132 -83zM284 -10q-92 0 -149.5 49t-57.5 144q0 47 16 114l98 403h22l-99 -405q-15 -63 -15 -110q0 -86 51.5 -130.5t135.5 -44.5q96 0 162 66q60 62 92 189l105 435h22l-107 -441
q-33 -132 -97 -197q-73 -72 -179 -72z" />
    <glyph glyph-name="ubreve" unicode="&#x16d;" horiz-adv-x="522" 
d="M198 -10q-67 0 -105 37t-38 105q0 36 15 100l67 276h21l-67 -275q-14 -56 -14 -100q0 -59 31.5 -91t92.5 -32q70 0 128.5 53.5t81.5 144.5l72 300h21l-124 -508h-21l29 116q-26 -53 -75 -89.5t-115 -36.5zM335 584q-48 0 -73 27t-20 70h17q-2 -36 17 -57.5t61 -21.5
q78 0 116 79h17q-39 -97 -135 -97z" />
    <glyph glyph-name="Uring" unicode="&#x16e;" horiz-adv-x="640" 
d="M284 -10q-92 0 -149.5 49t-57.5 144q0 47 16 114l98 403h22l-99 -405q-15 -63 -15 -110q0 -86 51.5 -130.5t135.5 -44.5q96 0 162 66q60 62 92 189l105 435h22l-107 -441q-33 -132 -97 -197q-73 -72 -179 -72zM464 907q39 0 61.5 -21t22.5 -53q0 -38 -30.5 -64t-71.5 -26
q-39 0 -61.5 20.5t-22.5 53.5q0 38 30.5 64t71.5 26zM448 759q32 0 57 21t25 52q0 26 -18 42.5t-49 16.5q-33 0 -58.5 -21t-25.5 -52q0 -26 18.5 -42.5t50.5 -16.5z" />
    <glyph glyph-name="uring" unicode="&#x16f;" horiz-adv-x="522" 
d="M440 673q0 -39 -29 -66t-65 -27t-58.5 22t-22.5 56q0 38 28.5 65.5t65.5 27.5q36 0 58.5 -22t22.5 -56zM282 659q0 -29 17.5 -46.5t46.5 -17.5q31 0 54 22.5t23 54.5q0 28 -17.5 46t-47.5 18t-53 -23t-23 -54zM198 -10q-67 0 -105 37t-38 105q0 36 15 100l67 276h21
l-67 -275q-14 -56 -14 -100q0 -59 31.5 -91t92.5 -32q70 0 128.5 53.5t81.5 144.5l72 300h21l-124 -508h-21l29 116q-26 -53 -75 -89.5t-115 -36.5z" />
    <glyph glyph-name="Uhungarumlaut" unicode="&#x170;" horiz-adv-x="640" 
d="M284 -10q-92 0 -149.5 49t-57.5 144q0 47 16 114l98 403h22l-99 -405q-15 -63 -15 -110q0 -86 51.5 -130.5t135.5 -44.5q96 0 162 66q60 62 92 189l105 435h22l-107 -441q-33 -132 -97 -197q-73 -72 -179 -72zM359 752l112 99l22 -12l-116 -87h-18zM464 752l110 99
l22 -12l-115 -87h-17z" />
    <glyph glyph-name="uhungarumlaut" unicode="&#x171;" horiz-adv-x="522" 
d="M198 -10q-67 0 -105 37t-38 105q0 36 15 100l67 276h21l-67 -275q-14 -56 -14 -100q0 -59 31.5 -91t92.5 -32q70 0 128.5 53.5t81.5 144.5l72 300h21l-124 -508h-21l29 116q-26 -53 -75 -89.5t-115 -36.5zM260 583l107 115l24 -12l-116 -103h-15zM365 583l107 115l24 -12
l-116 -103h-15z" />
    <glyph glyph-name="Uogonek" unicode="&#x172;" horiz-adv-x="640" 
d="M284 -10q-11 0 -16 1q-57 -46 -57 -78q0 -36 63 -39l-4 -15q-2 -1 -5 -1q-35 0 -55.5 15t-20.5 37q0 37 59 82q-77 9 -124 57.5t-47 133.5q0 47 16 114l98 403h22l-99 -405q-15 -63 -15 -110q0 -86 51.5 -130.5t135.5 -44.5q96 0 162 66q60 62 92 189l105 435h22
l-107 -441q-33 -132 -97 -197q-73 -72 -179 -72z" />
    <glyph glyph-name="uogonek" unicode="&#x173;" horiz-adv-x="522" 
d="M198 -10q-67 0 -105 37t-38 105q0 36 15 100l67 276h21l-67 -275q-14 -56 -14 -100q0 -59 31.5 -91t92.5 -32q70 0 128.5 53.5t81.5 144.5l72 300h21l-124 -508h-4q-70 -53 -70 -87q0 -36 63 -39l-4 -15q-2 -1 -5 -1q-35 0 -55.5 15t-20.5 37q0 41 76 94l28 112
q-26 -53 -75 -89.5t-115 -36.5z" />
    <glyph glyph-name="Wcircumflex" unicode="&#x174;" horiz-adv-x="904" 
d="M181 -5l-34 705h22l30 -669l349 671h18l31 -671l350 669h23l-371 -705h-20l-31 665l-347 -665h-20zM463 758l118 97h17l70 -97h-17l-65 75l-102 -75h-21z" />
    <glyph glyph-name="wcircumflex" unicode="&#x175;" horiz-adv-x="698" 
d="M323 590l121 116h13l65 -116h-15l-61 91l-105 -91h-18zM127 -4l-28 512h21l23 -473l256 475h18l22 -475l252 473h23l-274 -512h-18l-24 471l-254 -471h-17z" />
    <glyph glyph-name="Ycircumflex" unicode="&#x176;" horiz-adv-x="559" 
d="M203 0l72 297l-146 403h22l139 -384l328 384h27l-348 -406l-72 -294h-22zM283 753l118 97h17l70 -97h-17l-65 75l-102 -75h-21z" />
    <glyph glyph-name="ycircumflex" unicode="&#x177;" horiz-adv-x="489" 
d="M175 4l-81 504h22l75 -480l294 480h24l-309 -500q-60 -98 -99 -129.5t-80 -31.5q-49 0 -81 27l13 16q31 -24 68 -24q34 0 69 28.5t85 109.5zM210 585l121 116h13l65 -116h-15l-61 91l-105 -91h-18z" />
    <glyph glyph-name="Ydieresis" unicode="&#x178;" horiz-adv-x="559" 
d="M203 0l72 297l-146 403h22l139 -384l328 384h27l-348 -406l-72 -294h-22zM318 768l11 46h34l-11 -46h-34zM437 768l11 46h35l-11 -46h-35z" />
    <glyph glyph-name="Zacute" unicode="&#x179;" horiz-adv-x="555" 
d="M-9 0l3 14l576 666h-402l6 20h431l-3 -15l-577 -665h415l-5 -20h-444zM373 757l111 99l22 -12l-116 -87h-17z" />
    <glyph glyph-name="zacute" unicode="&#x17a;" horiz-adv-x="414" 
d="M263 588l108 115l23 -12l-116 -103h-15zM-27 0l2 13l430 476h-305l5 19h333l-2 -13l-430 -477h317l-4 -18h-346z" />
    <glyph glyph-name="Zdotaccent" unicode="&#x17b;" horiz-adv-x="555" 
d="M373 773l11 46h35l-12 -46h-34zM-9 0l3 14l576 666h-402l6 20h431l-3 -15l-577 -665h415l-5 -20h-444z" />
    <glyph glyph-name="zdotaccent" unicode="&#x17c;" horiz-adv-x="414" 
d="M-27 0l2 13l430 476h-305l5 19h333l-2 -13l-430 -477h317l-4 -18h-346zM264 604l12 45h32l-11 -45h-33z" />
    <glyph glyph-name="Zcaron" unicode="&#x17d;" horiz-adv-x="555" 
d="M515 855l-117 -97h-17l-71 97h17l66 -74l101 74h21zM-9 0l3 14l576 666h-402l6 20h431l-3 -15l-577 -665h415l-5 -20h-444z" />
    <glyph glyph-name="zcaron" unicode="&#x17e;" horiz-adv-x="414" 
d="M271 590l-64 116h14l61 -91l105 91h19l-122 -116h-13zM-27 0l2 13l430 476h-305l5 19h333l-2 -13l-430 -477h317l-4 -18h-346z" />
    <glyph glyph-name="Aringacute" unicode="&#x1fa;" horiz-adv-x="646" 
d="M-23 0l433 678q-55 15 -55 70q0 38 31 64t72 26q39 0 61.5 -20.5t22.5 -52.5q0 -36 -26.5 -61t-64.5 -29l99 -675h-21l-30 210h-364l-133 -210h-25zM148 230h348l-65 442zM442 690q32 0 57 21.5t25 52.5q0 26 -18 42.5t-50 16.5q-33 0 -58 -21.5t-25 -52.5
q0 -26 18.5 -42.5t50.5 -16.5zM466 867l101 82l22 -12l-104 -70h-19z" />
    <glyph glyph-name="aringacute" unicode="&#x1fb;" horiz-adv-x="487" 
d="M361 800l101 89l22 -12l-107 -77h-16zM159 -10q-57 0 -98.5 35.5t-41.5 97.5q0 81 51 131q51 53 150 53q88 0 176 -31l7 29q9 43 9 71q0 57 -40 88t-107 31q-58 0 -122 -24l-6 20q66 24 130 24q75 0 120.5 -36t45.5 -103q0 -32 -10 -72l-74 -304h-21l27 108
q-67 -118 -196 -118zM162 9q78 0 136 54t78 133l15 60q-84 31 -173 31q-86 0 -132 -46q-45 -43 -45 -116q0 -55 35.5 -85.5t85.5 -30.5zM429 684q0 -39 -29 -66t-65 -27t-58.5 22t-22.5 56q0 38 28.5 65.5t65.5 27.5q36 0 58.5 -22t22.5 -56zM271 670q0 -29 17.5 -46.5
t46.5 -17.5q31 0 54 22.5t23 54.5q0 28 -17.5 46t-47.5 18t-53 -23t-23 -54z" />
    <glyph glyph-name="AEacute" unicode="&#x1fc;" horiz-adv-x="853" 
d="M585 757l111 99l22 -12l-116 -87h-17zM-53 0l540 700h418l-5 -20h-371l-78 -318h337l-5 -20h-337l-79 -322h376l-5 -20h-397l51 210h-258l-161 -210h-26zM150 230h247l110 450h-11z" />
    <glyph glyph-name="aeacute" unicode="&#x1fd;" horiz-adv-x="840" 
d="M574 -10q-71 0 -119 35.5t-64 101.5q-93 -137 -228 -137q-61 0 -102.5 36t-41.5 99q0 79 51 129q51 53 151 53q87 0 175 -31l7 29q9 43 9 71q0 57 -40 88t-107 31q-58 0 -122 -24l-6 20q66 24 130 24q76 0 121.5 -37t43.5 -106q32 63 88 104.5t120 41.5q79 0 119 -51.5
t40 -130.5q0 -40 -14 -89h-376q-4 -24 -4 -55q0 -86 45.5 -134t124.5 -48q80 0 148 55l12 -17q-75 -58 -161 -58zM165 9q66 0 124.5 39.5t97.5 106.5q-6 44 3 101q-84 31 -172 31q-86 0 -132 -46q-45 -43 -45 -114q0 -55 36 -86.5t88 -31.5zM501 436q-66 -66 -88 -169h355
q9 41 9 69q0 71 -34 116.5t-103 45.5q-77 0 -139 -62zM471 588l108 115l23 -12l-116 -103h-15z" />
    <glyph glyph-name="Oslashacute" unicode="&#x1fe;" horiz-adv-x="698" 
d="M425 711q125 0 192 -100l98 95h26l-114 -113q39 -69 39 -160q0 -95 -36.5 -192t-98.5 -159q-93 -93 -211 -93q-124 0 -191 100l-99 -95h-26l114 112q-38 67 -38 161q0 95 36 192t98 159q93 93 211 93zM102 267q0 -84 32 -145l468 473q-61 96 -178 96q-108 0 -194 -86
q-59 -58 -93.5 -152.5t-34.5 -185.5zM321 9q109 0 195 86q58 59 93 153.5t35 184.5q0 84 -32 145l-469 -473q60 -96 178 -96zM454 762l111 99l22 -12l-116 -87h-17z" />
    <glyph glyph-name="oslashacute" unicode="&#x1ff;" horiz-adv-x="531" 
d="M303 518q92 0 145 -69l68 64h25l-82 -80q31 -51 31 -119q0 -71 -26 -138.5t-74 -115.5q-70 -70 -162 -70q-93 0 -146 69l-67 -64h-24l81 80q-31 50 -31 119q0 70 26 138t74 116q70 70 162 70zM468 312q0 60 -25 105l-346 -343q46 -64 132 -64q82 0 146 64q43 43 68 107.5
t25 130.5zM302 498q-83 0 -146 -65q-43 -43 -68 -107t-25 -131q0 -61 24 -105l346 343q-47 65 -131 65zM330 589l108 115l23 -12l-116 -103h-15z" />
    <glyph glyph-name="Scommaaccent" unicode="&#x218;" horiz-adv-x="535" 
d="M129 -183l-4 13q27 14 36 48h-15l12 48h33l-9 -36q-9 -34 -20.5 -49t-32.5 -24zM246 -9q-143 0 -234 124l18 13q86 -117 218 -117q83 0 135 49.5t52 112.5q0 32 -10.5 57.5t-35.5 48t-44.5 36.5t-59.5 38q-39 24 -57 37t-44 36.5t-37 49t-11 56.5q0 68 50 118
q59 59 155 59q119 0 203 -97l-16 -14q-78 91 -189 91q-80 0 -130.5 -46.5t-50.5 -108.5q0 -34 20 -64t44.5 -48.5t65.5 -45.5l4.5 -3t4 -2.5t4.5 -2.5q79 -48 117.5 -88.5t38.5 -104.5q0 -71 -54 -124q-60 -60 -157 -60z" />
    <glyph glyph-name="scommaaccent" unicode="&#x219;" horiz-adv-x="415" 
d="M70 -183l-4 13q27 14 36 48h-15l12 48h33l-9 -36q-9 -34 -20.5 -49t-32.5 -24zM177 -8q-49 0 -95.5 24t-79.5 64l17 14q73 -82 160 -82q58 0 94.5 34t36.5 77q0 39 -24.5 66t-82.5 62q-62 37 -88.5 66.5t-26.5 72.5q0 52 42 89t108 37q88 0 154 -76l-17 -14
q-62 70 -138 70q-57 0 -92 -31t-35 -73q0 -36 25.5 -64t82.5 -61q59 -34 86.5 -66t27.5 -76q0 -53 -43 -93t-112 -40z" />
    <glyph glyph-name="schwa" unicode="&#x259;" horiz-adv-x="501" 
d="M37 171q2 45 14 89h377q5 30 5 55q0 86 -45.5 134t-124.5 48q-80 0 -149 -55l-12 17q75 58 161 58q88 0 139.5 -53t51.5 -147q0 -72 -27.5 -141.5t-74.5 -116.5q-70 -70 -155 -70q-80 0 -120 51.5t-40 130.5zM336 71q66 66 88 169h-356q-9 -41 -9 -69q0 -71 34.5 -116.5
t103.5 -45.5q75 0 139 62z" />
    <glyph glyph-name="circumflex" unicode="&#x2c6;" 
d="M235 590l121 116h13l65 -116h-15l-61 91l-105 -91h-18z" />
    <glyph glyph-name="caron" unicode="&#x2c7;" 
d="M326 590l-64 116h14l61 -91l105 91h19l-122 -116h-13z" />
    <glyph glyph-name="breve" unicode="&#x2d8;" 
d="M336 589q-48 0 -73 27t-20 70h17q-2 -36 17 -57.5t61 -21.5q78 0 116 79h17q-39 -97 -135 -97z" />
    <glyph glyph-name="dotaccent" unicode="&#x2d9;" 
d="M320 604l12 45h32l-11 -45h-33z" />
    <glyph glyph-name="ring" unicode="&#x2da;" 
d="M442 684q0 -39 -29 -66t-65 -27t-58.5 22t-22.5 56q0 38 28.5 65.5t65.5 27.5q36 0 58.5 -22t22.5 -56zM284 670q0 -29 17.5 -46.5t46.5 -17.5q31 0 54 22.5t23 54.5q0 28 -17.5 46t-47.5 18t-53 -23t-23 -54z" />
    <glyph glyph-name="ogonek" unicode="&#x2db;" 
d="M217 -126l-4 -15q-2 -1 -5 -1q-35 0 -55.5 15t-20.5 37q0 41 79 96l16 -4q-73 -54 -73 -89q0 -36 63 -39z" />
    <glyph glyph-name="tilde" unicode="&#x2dc;" 
d="M458 678l14 -3q-29 -76 -75 -76q-19 0 -58 29q-32 27 -49 27q-33 0 -58 -59l-14 3q29 76 75 76q22 0 58 -31q33 -26 48 -26q32 0 59 60z" />
    <glyph glyph-name="hungarumlaut" unicode="&#x2dd;" 
d="M223 588l107 115l24 -12l-116 -103h-15zM328 588l107 115l24 -12l-116 -103h-15z" />
    <glyph glyph-name="commaaccent" unicode="&#x326;" 
d="M128 -180l-4 13q27 14 36 48h-15l12 48h33l-9 -36q-9 -34 -20.5 -49t-32.5 -24z" />
    <glyph glyph-name="Wgrave" unicode="&#x1e80;" horiz-adv-x="904" 
d="M549 757l-76 87l23 12l67 -99h-14zM181 -5l-34 705h22l30 -669l349 671h18l31 -671l350 669h23l-371 -705h-20l-31 665l-347 -665h-20z" />
    <glyph glyph-name="wgrave" unicode="&#x1e81;" horiz-adv-x="698" 
d="M127 -4l-28 512h21l23 -473l256 475h18l22 -475l252 473h23l-274 -512h-18l-24 471l-254 -471h-17zM412 588l-72 103l24 12l59 -115h-11z" />
    <glyph glyph-name="Wacute" unicode="&#x1e82;" horiz-adv-x="904" 
d="M557 757l111 99l22 -12l-116 -87h-17zM181 -5l-34 705h22l30 -669l349 671h18l31 -671l350 669h23l-371 -705h-20l-31 665l-347 -665h-20z" />
    <glyph glyph-name="wacute" unicode="&#x1e83;" horiz-adv-x="698" 
d="M412 588l108 115l23 -12l-116 -103h-15zM127 -4l-28 512h21l23 -473l256 475h18l22 -475l252 473h23l-274 -512h-18l-24 471l-254 -471h-17z" />
    <glyph glyph-name="Wdieresis" unicode="&#x1e84;" horiz-adv-x="904" 
d="M498 773l11 46h34l-11 -46h-34zM617 773l11 46h35l-11 -46h-35zM181 -5l-34 705h22l30 -669l349 671h18l31 -671l350 669h23l-371 -705h-20l-31 665l-347 -665h-20z" />
    <glyph glyph-name="wdieresis" unicode="&#x1e85;" horiz-adv-x="698" 
d="M357 604l11 45h33l-11 -45h-33zM469 604l11 45h32l-11 -45h-32zM127 -4l-28 512h21l23 -473l256 475h18l22 -475l252 473h23l-274 -512h-18l-24 471l-254 -471h-17z" />
    <glyph glyph-name="Ygrave" unicode="&#x1ef2;" horiz-adv-x="559" 
d="M203 0l72 297l-146 403h22l139 -384l328 384h27l-348 -406l-72 -294h-22zM371 752l-76 87l23 12l67 -99h-14z" />
    <glyph glyph-name="ygrave" unicode="&#x1ef3;" horiz-adv-x="489" 
d="M175 4l-81 504h22l75 -480l294 480h24l-309 -500q-60 -98 -99 -129.5t-80 -31.5q-49 0 -81 27l13 16q31 -24 68 -24q34 0 69 28.5t85 109.5zM298 583l-72 103l24 12l59 -115h-11z" />
    <glyph glyph-name="enspace" unicode="&#x2002;" horiz-adv-x="500" 
 />
    <glyph glyph-name="emspace" unicode="&#x2003;" horiz-adv-x="1000" 
 />
    <glyph glyph-name="threeperemspace" unicode="&#x2004;" horiz-adv-x="333" 
 />
    <glyph glyph-name="fourperemspace" unicode="&#x2005;" horiz-adv-x="250" 
 />
    <glyph glyph-name="thinspace" unicode="&#x2009;" horiz-adv-x="122" 
 />
    <glyph glyph-name="hairspace" unicode="&#x200a;" horiz-adv-x="67" 
 />
    <glyph glyph-name="endash" unicode="&#x2013;" horiz-adv-x="491" 
d="M68 287l5 20h368l-4 -20h-369z" />
    <glyph glyph-name="emdash" unicode="&#x2014;" horiz-adv-x="790" 
d="M68 287l5 20h667l-4 -20h-668z" />
    <glyph glyph-name="quoteleft" unicode="&#x2018;" horiz-adv-x="142" 
d="M131 577l12 50q9 36 21.5 52t33.5 22l4 -12q-28 -10 -40 -61h16l-13 -51h-34z" />
    <glyph glyph-name="quoteright" unicode="&#x2019;" horiz-adv-x="142" 
d="M130 576l-4 12q28 10 40 60h-16l13 52h33l-12 -50q-9 -35 -21.5 -51.5t-32.5 -22.5z" />
    <glyph glyph-name="quotesinglbase" unicode="&#x201a;" horiz-adv-x="142" 
d="M-28 -73l-4 13q28 8 40 60h-16l13 52h33l-11 -51q-16 -62 -55 -74z" />
    <glyph glyph-name="quotedblleft" unicode="&#x201c;" horiz-adv-x="229" 
d="M131 577l12 50q9 36 21.5 52t33.5 22l4 -12q-28 -10 -40 -61h16l-13 -51h-34zM219 577l12 50q9 35 21.5 51.5t32.5 22.5l4 -12q-28 -10 -40 -61h16l-13 -51h-33z" />
    <glyph glyph-name="quotedblright" unicode="&#x201d;" horiz-adv-x="229" 
d="M130 576l-4 12q28 10 40 60h-16l13 52h33l-12 -50q-9 -35 -21.5 -51.5t-32.5 -22.5zM217 576l-4 12q29 10 40 60h-16l13 52h34l-12 -50q-9 -35 -21.5 -51.5t-33.5 -22.5z" />
    <glyph glyph-name="quotedblbase" unicode="&#x201e;" horiz-adv-x="229" 
d="M-28 -73l-4 13q28 8 40 60h-16l13 52h33l-11 -51q-16 -62 -55 -74zM59 -73l-4 13q29 9 40 60h-16l13 52h34l-12 -51q-9 -35 -21.5 -51.5t-33.5 -22.5z" />
    <glyph glyph-name="dagger" unicode="&#x2020;" horiz-adv-x="343" 
d="M155 238l77 297l-112 -6l6 22l109 -6l33 155h23l-43 -155l112 6l-5 -22l-110 6l-66 -297h-24z" />
    <glyph glyph-name="daggerdbl" unicode="&#x2021;" horiz-adv-x="343" 
d="M97 0l43 155l-113 -6l6 22l109 -6l41 185l49 185l-112 -6l6 22l109 -6l33 155h23l-43 -155l112 6l-5 -22l-110 6l-40 -185l-50 -185l113 6l-6 -22l-110 6l-32 -155h-23z" />
    <glyph glyph-name="bullet" unicode="&#x2022;" horiz-adv-x="390" 
d="M231 456q36 0 57.5 -22t21.5 -59q0 -59 -37 -96q-31 -29 -72 -29q-35 0 -56.5 22t-21.5 59q0 59 36 95q32 30 72 30z" />
    <glyph glyph-name="ellipsis" unicode="&#x2026;" horiz-adv-x="434" 
d="M-7 0l13 52h33l-13 -52h-33zM139 0l12 52h33l-12 -52h-33zM284 0l13 52h33l-13 -52h-33z" />
    <glyph glyph-name="perthousand" unicode="&#x2030;" horiz-adv-x="1056" 
d="M60 0l313 355l305 345h24l-313 -355l-304 -345h-25zM212 354q-52 0 -84 37.5t-32 98.5q0 48 18.5 95t49.5 78q44 44 99 44q52 0 83.5 -37t31.5 -98q0 -48 -18 -95t-49 -78q-45 -45 -99 -45zM212 374q48 0 83 37q28 28 45 71.5t17 88.5q0 52 -25.5 84.5t-69.5 32.5
q-46 0 -83 -37q-28 -28 -45 -71.5t-17 -88.5q0 -52 26 -84.5t69 -32.5zM499 -7q-52 0 -83.5 37t-31.5 98q0 48 18 95t49 78q47 45 100 45q52 0 83.5 -37.5t31.5 -98.5q0 -48 -18.5 -95t-49.5 -78q-44 -44 -99 -44zM500 12q48 0 83 37q28 28 45 71.5t17 88.5q0 52 -25.5 84.5
t-69.5 32.5q-46 0 -83 -37q-28 -28 -45 -71.5t-17 -88.5q0 -52 26 -84.5t69 -32.5zM838 -7q-52 0 -83.5 37t-31.5 98q0 48 18.5 95t49.5 78q45 45 99 45q52 0 84 -37.5t32 -98.5q0 -48 -18.5 -95t-49.5 -78q-46 -44 -100 -44zM839 12q45 0 84 37q28 28 44.5 71.5t16.5 88.5
q0 52 -25.5 84.5t-69.5 32.5q-46 0 -83 -37q-28 -28 -45 -71.5t-17 -88.5q0 -52 26 -84.5t69 -32.5z" />
    <glyph glyph-name="guilsinglleft" unicode="&#x2039;" horiz-adv-x="259" 
d="M140 47l-105 205l1 6l205 204l13 -11l-195 -199l96 -197z" />
    <glyph glyph-name="guilsinglright" unicode="&#x203a;" horiz-adv-x="259" 
d="M114 461l105 -205l-1 -6l-205 -204l-13 11l195 199l-96 197z" />
    <glyph glyph-name="Euro" unicode="&#x20ac;" horiz-adv-x="596" 
d="M84 429l4 20h73q38 115 104 182q78 78 178 78q62 0 108 -33t67 -86l-19 -10q-47 109 -158 109q-89 0 -160 -71q-62 -62 -98 -169h277l-5 -20h-278q-21 -67 -26 -149h268l-5 -19h-264v-18q0 -109 48 -170.5t130 -61.5q91 0 166 81l15 -15q-79 -86 -181 -86
q-91 0 -145.5 66.5t-54.5 184.5v19h-85l5 19h81q5 75 26 149h-71z" />
    <glyph glyph-name="published" unicode="&#x2117;" horiz-adv-x="731" 
d="M343 537h86q54 0 86.5 -25t32.5 -76q0 -60 -45.5 -96.5t-119.5 -36.5h-78l-33 -138h-20zM528 436q0 83 -100 83h-71l-47 -198h75q61 0 102 29.5t41 85.5zM429 712q129 0 205.5 -85t76.5 -216q0 -88 -32.5 -174.5t-92.5 -146.5q-102 -102 -239 -102q-129 0 -205.5 85
t-76.5 216q0 88 32.5 174.5t92.5 146.5q102 102 239 102zM349 5q127 0 224 95q58 58 89 142.5t31 171.5q0 119 -70.5 200t-194.5 81q-128 0 -225 -95q-58 -58 -89 -142.5t-31 -171.5q0 -119 70.5 -200t195.5 -81z" />
    <glyph glyph-name="servicemark" unicode="&#x2120;" horiz-adv-x="589" 
d="M175 386q-67 0 -106 56l12 9q37 -52 95 -52q35 0 56.5 20t21.5 48q0 23 -15 39.5t-48 35.5q-34 21 -50.5 38.5t-16.5 43.5q0 32 23 55q26 26 69 26q58 0 93 -46l-12 -10q-32 42 -82 42q-34 0 -55 -19.5t-21 -46.5q0 -22 14.5 -37.5t46.5 -33.5q36 -21 52.5 -40t16.5 -46
q0 -32 -22 -54q-28 -28 -72 -28zM318 390l80 310h13l60 -189l155 189h17l-79 -310h-15l71 279l-154 -186h-2l-59 185l-72 -278h-15z" />
    <glyph glyph-name="trademark" unicode="&#x2122;" horiz-adv-x="562" 
d="M127 390l76 295h-91l4 15h196l-4 -15h-90l-76 -295h-15zM292 390l79 310h13l60 -189l155 189h17l-79 -310h-15l72 279l-155 -186h-2l-59 185l-71 -278h-15z" />
    <glyph glyph-name="minus" unicode="&#x2212;" horiz-adv-x="515" 
d="M80 343l5 18h397l-5 -18h-397z" />
    <glyph glyph-name="Q.alt" horiz-adv-x="701" 
d="M425 711q108 0 174.5 -76.5t66.5 -201.5q0 -95 -36.5 -192t-98.5 -158l-9 -9l60 -73l-15 -13l-60 73q-84 -72 -187 -72q-107 0 -173.5 76.5t-66.5 201.5q0 96 36 192.5t99 158.5q93 93 210 93zM321 9q94 0 173 67l-107 131l16 13l106 -131l6 6q59 60 94 153.5t35 184.5
q0 116 -61 187t-159 71q-109 0 -193 -86q-60 -59 -94.5 -153t-34.5 -185q0 -116 60.5 -187t158.5 -71z" />
    <glyph glyph-name="a.alt" horiz-adv-x="553" 
d="M212 -10q-76 0 -122.5 55.5t-46.5 141.5q0 73 27 145t75 119q67 67 151 67q80 0 125 -51t51 -116l39 157h21l-123 -508h-21l30 126q-24 -48 -80.5 -92t-125.5 -44zM214 10q81 0 145 64q45 45 72 110t27 128q0 78 -43.5 132t-117.5 54q-76 0 -136 -60
q-45 -44 -70.5 -112.5t-25.5 -137.5q0 -77 41.5 -127.5t107.5 -50.5z" />
    <glyph glyph-name="aacute.alt" horiz-adv-x="553" 
d="M345 589l108 115l23 -12l-116 -103h-15zM212 -10q-76 0 -122.5 55.5t-46.5 141.5q0 73 27 145t75 119q67 67 151 67q80 0 125 -51t51 -116l39 157h21l-123 -508h-21l30 126q-24 -48 -80.5 -92t-125.5 -44zM214 10q81 0 145 64q45 45 72 110t27 128q0 78 -43.5 132
t-117.5 54q-76 0 -136 -60q-45 -44 -70.5 -112.5t-25.5 -137.5q0 -77 41.5 -127.5t107.5 -50.5z" />
    <glyph glyph-name="abreve.alt" horiz-adv-x="553" 
d="M212 -10q-76 0 -122.5 55.5t-46.5 141.5q0 73 27 145t75 119q67 67 151 67q80 0 125 -51t51 -116l39 157h21l-123 -508h-21l30 126q-24 -48 -80.5 -92t-125.5 -44zM214 10q81 0 145 64q45 45 72 110t27 128q0 78 -43.5 132t-117.5 54q-76 0 -136 -60
q-45 -44 -70.5 -112.5t-25.5 -137.5q0 -77 41.5 -127.5t107.5 -50.5zM360 590q-48 0 -73 27t-20 70h17q-2 -36 17 -57.5t61 -21.5q78 0 116 79h17q-39 -97 -135 -97z" />
    <glyph glyph-name="acircumflex.alt" horiz-adv-x="553" 
d="M257 591l121 116h13l65 -116h-15l-61 91l-105 -91h-18zM212 -10q-76 0 -122.5 55.5t-46.5 141.5q0 73 27 145t75 119q67 67 151 67q80 0 125 -51t51 -116l39 157h21l-123 -508h-21l30 126q-24 -48 -80.5 -92t-125.5 -44zM214 10q81 0 145 64q45 45 72 110t27 128
q0 78 -43.5 132t-117.5 54q-76 0 -136 -60q-45 -44 -70.5 -112.5t-25.5 -137.5q0 -77 41.5 -127.5t107.5 -50.5z" />
    <glyph glyph-name="adieresis.alt" horiz-adv-x="553" 
d="M291 605l11 45h33l-11 -45h-33zM403 605l11 45h32l-11 -45h-32zM212 -10q-76 0 -122.5 55.5t-46.5 141.5q0 73 27 145t75 119q67 67 151 67q80 0 125 -51t51 -116l39 157h21l-123 -508h-21l30 126q-24 -48 -80.5 -92t-125.5 -44zM214 10q81 0 145 64q45 45 72 110t27 128
q0 78 -43.5 132t-117.5 54q-76 0 -136 -60q-45 -44 -70.5 -112.5t-25.5 -137.5q0 -77 41.5 -127.5t107.5 -50.5z" />
    <glyph glyph-name="agrave.alt" horiz-adv-x="553" 
d="M212 -10q-76 0 -122.5 55.5t-46.5 141.5q0 73 27 145t75 119q67 67 151 67q80 0 125 -51t51 -116l39 157h21l-123 -508h-21l30 126q-24 -48 -80.5 -92t-125.5 -44zM214 10q81 0 145 64q45 45 72 110t27 128q0 78 -43.5 132t-117.5 54q-76 0 -136 -60
q-45 -44 -70.5 -112.5t-25.5 -137.5q0 -77 41.5 -127.5t107.5 -50.5zM346 589l-72 103l24 12l59 -115h-11z" />
    <glyph glyph-name="amacron.alt" horiz-adv-x="553" 
d="M212 -10q-76 0 -122.5 55.5t-46.5 141.5q0 73 27 145t75 119q67 67 151 67q80 0 125 -51t51 -116l39 157h21l-123 -508h-21l30 126q-24 -48 -80.5 -92t-125.5 -44zM214 10q81 0 145 64q45 45 72 110t27 128q0 78 -43.5 132t-117.5 54q-76 0 -136 -60
q-45 -44 -70.5 -112.5t-25.5 -137.5q0 -77 41.5 -127.5t107.5 -50.5zM251 610l5 19h225l-5 -19h-225z" />
    <glyph glyph-name="aogonek.alt" horiz-adv-x="553" 
d="M398 -126l-4 -15q-2 -1 -5 -1q-35 0 -55.5 15t-20.5 37q0 41 76 94l29 122q-24 -48 -80.5 -92t-125.5 -44q-76 0 -122.5 55.5t-46.5 141.5q0 73 27 145t75 119q67 67 151 67q80 0 125 -51t51 -116l39 157h21l-123 -508h-4q-70 -53 -70 -87q0 -36 63 -39zM214 10
q81 0 145 64q45 45 72 110t27 128q0 78 -43.5 132t-117.5 54q-76 0 -136 -60q-45 -44 -70.5 -112.5t-25.5 -137.5q0 -77 41.5 -127.5t107.5 -50.5z" />
    <glyph glyph-name="aring.alt" horiz-adv-x="553" 
d="M467 685q0 -39 -29 -66t-65 -27t-58.5 22t-22.5 56q0 38 28.5 65.5t65.5 27.5q36 0 58.5 -22t22.5 -56zM309 671q0 -29 17.5 -46.5t46.5 -17.5q31 0 54 22.5t23 54.5q0 28 -17.5 46t-47.5 18t-53 -23t-23 -54zM212 -10q-76 0 -122.5 55.5t-46.5 141.5q0 73 27 145t75 119
q67 67 151 67q80 0 125 -51t51 -116l39 157h21l-123 -508h-21l30 126q-24 -48 -80.5 -92t-125.5 -44zM214 10q81 0 145 64q45 45 72 110t27 128q0 78 -43.5 132t-117.5 54q-76 0 -136 -60q-45 -44 -70.5 -112.5t-25.5 -137.5q0 -77 41.5 -127.5t107.5 -50.5z" />
    <glyph glyph-name="aring.alt2" horiz-adv-x="486" 
d="M328 0l27 108q-67 -118 -196 -118q-57 0 -98.5 35.5t-41.5 97.5q0 81 51 131q51 53 150 53q88 0 176 -31l7 29q9 43 9 71q0 57 -40 88t-107 31q-58 0 -122 -24l-6 20q56 23 126 24q-28 20 -28 59t28.5 65.5t65.5 26.5q36 0 58 -21.5t22 -55.5q0 -31 -18.5 -54t-46.5 -32
q89 -32 89 -127q0 -32 -10 -72l-74 -304h-21zM316 512q31 0 54 22t23 54q0 29 -17.5 46t-47.5 17q-31 0 -53.5 -22t-22.5 -54q0 -28 17.5 -45.5t46.5 -17.5zM162 9q78 0 136 54t78 133l15 60q-84 31 -173 31q-86 0 -132 -46q-45 -43 -45 -116q0 -55 35.5 -85.5t85.5 -30.5z
" />
    <glyph glyph-name="aringacute.alt" horiz-adv-x="553" 
d="M397 800l100 89l22 -12l-106 -77h-16zM464 684q0 -39 -29 -66t-65 -27t-58.5 22t-22.5 56q0 38 28.5 65.5t65.5 27.5q36 0 58.5 -22t22.5 -56zM306 670q0 -29 17.5 -46.5t46.5 -17.5q31 0 54 22.5t23 54.5q0 28 -17.5 46t-47.5 18t-53 -23t-23 -54zM212 -10
q-76 0 -122.5 55.5t-46.5 141.5q0 73 27 145t75 119q67 67 151 67q80 0 125 -51t51 -116l39 157h21l-123 -508h-21l30 126q-24 -48 -80.5 -92t-125.5 -44zM214 10q81 0 145 64q45 45 72 110t27 128q0 78 -43.5 132t-117.5 54q-76 0 -136 -60q-45 -44 -70.5 -112.5
t-25.5 -137.5q0 -77 41.5 -127.5t107.5 -50.5z" />
    <glyph glyph-name="aringacute.alt2" horiz-adv-x="487" 
d="M342 709l99 88l22 -11l-106 -77h-15zM328 0l27 108q-67 -118 -196 -118q-57 0 -98.5 35.5t-41.5 97.5q0 81 51 131q51 53 150 53q88 0 176 -31l7 29q9 43 9 71q0 57 -40 88t-107 31q-58 0 -122 -24l-6 20q56 23 126 24q-28 20 -28 59t28.5 65.5t65.5 26.5q36 0 58 -21.5
t22 -55.5q0 -31 -18.5 -54t-46.5 -32q89 -32 89 -127q0 -32 -10 -72l-74 -304h-21zM316 512q31 0 54 22t23 54q0 29 -17.5 46t-47.5 17q-31 0 -53.5 -22t-22.5 -54q0 -28 17.5 -45.5t46.5 -17.5zM162 9q78 0 136 54t78 133l15 60q-84 31 -173 31q-86 0 -132 -46
q-45 -43 -45 -116q0 -55 35.5 -85.5t85.5 -30.5z" />
    <glyph glyph-name="atilde.alt" horiz-adv-x="553" 
d="M212 -10q-76 0 -122.5 55.5t-46.5 141.5q0 73 27 145t75 119q67 67 151 67q80 0 125 -51t51 -116l39 157h21l-123 -508h-21l30 126q-24 -48 -80.5 -92t-125.5 -44zM214 10q81 0 145 64q45 45 72 110t27 128q0 78 -43.5 132t-117.5 54q-76 0 -136 -60
q-45 -44 -70.5 -112.5t-25.5 -137.5q0 -77 41.5 -127.5t107.5 -50.5zM482 679l14 -3q-29 -76 -75 -76q-19 0 -58 29q-32 27 -49 27q-33 0 -58 -59l-14 3q29 76 75 76q22 0 58 -31q33 -26 48 -26q32 0 59 60z" />
    <glyph glyph-name="three.alt" horiz-adv-x="481" 
d="M190 -9q-62 0 -116 26.5t-86 77.5l18 12q29 -45 78 -70.5t107 -25.5q90 0 145 56t55 127q0 70 -50 112t-128 42h-44l5 19h51q99 0 167 52t68 133q0 60 -44.5 99t-115.5 39q-90 0 -164 -65l-14 16q77 69 178 69q83 0 132.5 -45t49.5 -112q0 -79 -56.5 -131t-143.5 -67
q63 -18 97 -61t34 -102q0 -80 -62 -140.5t-161 -60.5z" />
    <glyph glyph-name="registered.alt" horiz-adv-x="731" 
d="M429 712q129 0 205.5 -85t76.5 -216q0 -88 -32.5 -174.5t-92.5 -146.5q-102 -102 -239 -102q-129 0 -205.5 85t-76.5 216q0 88 32.5 174.5t92.5 146.5q102 102 239 102zM349 5q127 0 224 95q58 58 89 142.5t31 171.5q0 119 -70.5 200t-194.5 81q-128 0 -225 -95
q-58 -58 -89 -142.5t-31 -171.5q0 -119 70.5 -200t195.5 -81zM294 328l-39 -155h-20l91 372h99q62 0 92 -30q26 -26 26 -67q0 -48 -32 -80q-31 -31 -91 -37l65 -158h-21l-64 156q-3 -1 -106 -1zM298 346h86q79 0 112 33q27 27 27 69q0 34 -19 53q-25 25 -78 25h-85z" />
    <glyph glyph-name="NUL" horiz-adv-x="0" 
 />
    <glyph glyph-name="hfjslug" horiz-adv-x="698" 
d="M257 276h8l11 34h1l11 -34h8l14 47h-8l-10 -35h-1l-11 35h-7l-11 -35h-1l-10 35h-8zM323 388q19 0 29 24h1l12 -24l12 6l-17 32q6 14 13 39l-13 3q-4 -18 -8 -30h-1l-16 31q23 21 23 42q0 31 -27 31q-12 0 -20 -9t-8 -22t14 -39q-23 -18 -23 -47q0 -16 8 -26.5t21 -10.5z
M52 -200v303q14 0 23 9.5t9 22.5t-9.5 22.5t-22.5 9.5v554h100l30 79h334l29 -79h101v-921h-208l-8 14h-163l-8 -14h-207zM525 277h8v12l8 8l15 -20h10l-20 26l18 20h-10l-20 -24h-1v24h-8v-46zM195 277h34v7h-26v13h23v7h-23v12h26v7h-34v-46zM186 391h15v79h47v-79h15v172
h-15v-79h-47v79h-15v-172zM134 277h8v32l25 -32h7v46h-8v-32l-25 32h-7v-46zM402 391h15v78h38v14h-38v66h43v14h-58v-172zM470 277h8v15h12l10 -15h9l-12 17q10 4 10 14q0 15 -17 15h-20v-46zM368 277h8v17l18 29h-9l-13 -22l-13 22h-9l18 -29v-17zM483 390q31 0 31 36v137
h-16v-137q0 -22 -16 -22q-8 0 -20 5v-15q10 -4 21 -4zM478 299v17h11q10 0 10 -8q0 -9 -10 -9h-11zM324 402q-16 0 -16 25q0 19 16 35l20 -39q-8 -21 -20 -21zM329 479q-12 22 -12 32q0 19 14 19q13 0 13 -19q0 -15 -15 -32zM428 283q-16 0 -16 17q0 6 4.5 11.5t11.5 5.5
t11.5 -5.5t4.5 -11.5q0 -17 -16 -17zM428 276q10 0 17 7t7 17q0 9 -7 16.5t-17 7.5t-17 -7.5t-7 -16.5q0 -10 7 -17t17 -7z" />
    <glyph glyph-name="i.dot" horiz-adv-x="194" 
d="M24 0l124 508h21l-124 -508h-21zM177 645l14 57h29l-14 -57h-29z" />
    <glyph glyph-name="caron.alt" 
d="M303 573l50 149h23v-2l-62 -147h-11z" />
    <glyph glyph-name="acute.cap" 
d="M327 757l111 99l22 -12l-116 -87h-17z" />
    <glyph glyph-name="hungarumlaut.cap" 
d="M261 757l112 99l22 -12l-116 -87h-18zM366 757l110 99l22 -12l-115 -87h-17z" />
    <glyph glyph-name="grave.cap" 
d="M405 757l-76 87l23 12l67 -99h-14z" />
    <glyph glyph-name="circumflex.cap" 
d="M272 758l118 97h17l70 -97h-17l-65 75l-102 -75h-21z" />
    <glyph glyph-name="caron.cap" 
d="M501 855l-117 -97h-17l-71 97h17l66 -74l101 74h21z" />
    <glyph glyph-name="breve.cap" 
d="M377 757q-50 0 -75.5 22.5t-22.5 60.5h17q0 -64 81 -64q82 0 114 64h18q-35 -83 -132 -83z" />
    <glyph glyph-name="tilde.cap" 
d="M268 764l-13 3q28 69 76 69q22 0 59 -26q34 -23 50 -23q31 0 59 52l13 -3q-29 -69 -75 -69q-21 0 -59 26q-37 24 -50 24q-33 0 -60 -53z" />
    <glyph glyph-name="macron.cap" 
d="M263 778l4 20h236l-5 -20h-235z" />
    <glyph glyph-name="dieresis.cap" 
d="M302 773l11 46h34l-11 -46h-34zM421 773l11 46h35l-11 -46h-35z" />
    <glyph glyph-name="dotaccent.cap" 
d="M361 773l11 46h35l-12 -46h-34z" />
    <glyph glyph-name="ring.cap" 
d="M404 922q39 0 61.5 -21t22.5 -53q0 -38 -30.5 -64t-71.5 -26q-39 0 -61.5 20.5t-22.5 53.5q0 38 30.5 64t71.5 26zM388 774q32 0 57 21t25 52q0 26 -18 42.5t-49 16.5q-33 0 -58.5 -21t-25.5 -52q0 -26 18.5 -42.5t50.5 -16.5z" />
    </font>
</defs>
</svg>
